<?xml version="1.0" encoding="UTF-8"?>
<svg id="Layer_2" data-name="Layer 2" xmlns="http://www.w3.org/2000/svg" viewBox="0 0 185.16268 185.30497">
  <g id="END">
    <path d="m.00522,92.63483C.00496,75.56705.01899,58.49925.00003,41.43149c-.01269-11.40222,3.95548-21.23655,11.94724-29.29596C19.02722,4.99563,27.70053.99854,37.79655.19194,39.97382.018,42.14546.00758,44.32146.00734,77.28692.00366,110.25237.01297,143.21783,0c10.35083-.00408,19.60137,3.10342,27.46643,9.87123,8.35331,7.18787,13.145,16.30501,14.25805,27.31847.2048,2.02624.21818,4.04725.21829,6.074.00196,33.44301.00319,66.88602.00065,100.32904-.00156,20.28908-13.60279,36.90376-33.50451,40.91954-2.57678.51994-5.19556.7387-7.81839.73987-34.10389.01511-68.2084.13321-102.31139-.04249-16.63464-.08571-29.04979-7.7872-37.02221-22.36386C1.37293,157.11963.00021,150.83882.003,144.28351c.00729-17.21622.00247-34.43246.00221-51.64868Zm100.41086,29.01658c0-8.70611.02049-17.41232-.0215-26.11824-.00649-1.34362.42733-1.8249,1.79704-1.80434,4.40385.06612,8.80947.00178,13.21397.03894,1.09315.00922,1.56363-.30403,1.66251-1.48913.50935-6.1062,1.10167-12.20561,1.68775-18.30522.18359-1.91091.08887-2.06281-1.79729-2.06509-4.65227-.00561-9.3049-.03344-13.95662.01683-1.2726.01375-1.77684-.39893-1.73558-1.71023.07618-2.42147.00859-4.84713.02509-7.27088.02614-3.84172,1.82586-5.65804,5.64555-5.68078,3.36534-.02003,6.73134-.03642,10.09614.0112,1.14112.01615,1.58894-.37545,1.58031-1.5425-.03844-5.19371-.03913-10.38801-.00083-15.58171.0087-1.1817-.47411-1.53881-1.59713-1.5303-5.93872.04498-11.88349-.11675-17.8151.09853-5.37857.19521-10.31374,1.85561-14.25207,5.7595-4.56201,4.52217-6.24867,10.19502-6.41032,16.42819-.07948,3.06493-.06313,6.13435-.00203,9.19999.0264,1.32336-.39401,1.86835-1.78547,1.82404-2.62037-.08345-5.24574.00445-7.86829-.03216-1.02414-.0143-1.40919.40353-1.40622,1.40785.01882,6.33165.02237,12.66345-.00569,18.99502-.00482,1.09237.42033,1.48626,1.49963,1.46468,2.42409-.04846,4.84992-.01479,7.27503-.01227q2.31009.00239,2.31429,2.27392c.00131,17.11543.01849,34.23092-.02955,51.3462-.00421,1.49637.41402,1.95332,1.92449,1.93324,5.98753-.07966,11.97672-.03086,17.9653-.03363,1.98686-.00091,1.99386-.00634,1.99451-1.94852.00279-8.55772.00116-17.11545.0021-25.67316Z"/>
  </g>
</svg>