<?xml version="1.0" encoding="UTF-8"?>
<svg id="Layer_2" data-name="Layer 2" xmlns="http://www.w3.org/2000/svg" viewBox="0 0 1921.42017 163.22847">
  <defs>
    <style>
      .cls-1, .cls-2 {
        fill: #1363b0;
      }

      .cls-2 {
        opacity: .56;
      }

      .cls-3 {
        fill: none;
        stroke: #1363b0;
        stroke-miterlimit: 10;
        stroke-width: 1.00312px;
      }
    </style>
  </defs>
  <g id="END">
    <g>
      <g>
        <path class="cls-2" d="m374.71997,163.22847c1.40015-.41016,2.72021-.8501,3.93994-1.31006.52002-.2002,1.03027-.3999,1.52002-.62012"/>
        <path class="cls-2" d="m332.8501,160.70845h-147.09009c-3.90991,1.31006-7.6001,1.58984-10.78003,0H0l.20996-20.56006s.15015.02002.44995.06006h.02002c3.68018.43994,28.19019,3.2002,53.2002,1.96973,13.42993-.66992,27.01001-2.47949,37.58984-6.42969.53003-.18994,1.05005-.39014,1.56006-.6001,12.3501-4.98975,20.16016-13.12988,17.97998-26.10986-2.06006-12.26025,2.06006-23.32031,9.18018-31.80029.53979-.6499,1.09985-1.27979,1.66992-1.88965,5.83008-6.24023,13.31006-10.88037,20.96997-13.29004,2.07983-.6499,4.17993-1.14014,6.26001-1.4502,16.88989-2.54004,32.72998,6.6499,31.71997,34.37988-1.07007,29.61035,1.6499,44.59033,7.04004,50.75.78003.91016,1.62988,1.62012,2.53003,2.17041,5.63989,3.40967,13.3999.08984,22.36987-5.42041.6001-.36963,1.20996-.69971,1.8501-.97998,2.32007-1.06982,4.84985-1.61963,7.52002-1.80957,7.09985-.51025,15.15991,1.48975,22.8999,3.02979,2.42017.47998,4.81006.91016,7.13013,1.19971,2.5498.34033,5,.5,7.32983.37012.37012-.02002.73999-.0498,1.1001-.08984,8.26001-.79004,14.62988-5.58008,16.62988-20.12012,1.59009-11.46973,5.44019-21.42969,10.59009-28.81982.32007-.45996.6499-.91992.97998-1.35986,3.31006-4.39014,7.09009-7.76025,11.11011-9.84033,1.28979-.66992,2.60986-1.20996,3.93994-1.60986,10.76001-3.20996,22.6499,2.72998,31.57983,22.29004,12.28027,26.8999,10.98022,47.23975,17.15015,55.95996.63013.8999,1.34985,1.68018,2.16992,2.31982"/>
        <path class="cls-2" d="m475.01001,160.70845h-93.48999c24.8501-11.54004,9.36011-36.1001,27.15015-47.91992,7.38989-4.8999,13.56982-20.95996,20.71997-32.5.20996-.3501.42993-.68994.63989-1.03027,1.92993-3.02002,3.92993-5.66992,6.05005-7.65967.78003-.75,1.57983-1.3999,2.3999-1.93994,9.94019-6.62012,22.52002,2.36963,41.51001,54.42969,3.27002,8.95996,6.12012,16.37988,8.6001,22.43018.13989.35986.29004.70996.43994,1.06006.39014.96973.78003,1.8999,1.16016,2.79004.56982,1.33984,1.11987,2.59961,1.63989,3.77979,1.12988,2.54004,2.16992,4.70996,3.09985,6.56006h-3.16992"/>
        <path class="cls-2" d="m608.90991,121.10835c-3.27979,15.47998-2.87988,28.7002-.11963,39.6001h-14.64014c.00977.20996.02979.41992.06006.62988-.06006-.20996-.11035-.41992-.16016-.62988h-89.9502c.93018-19.20996-5.10986-65.72998-1.21973-79.70996,1.45996-5.24023,3.87012-10.16992,6.75-14.39014.31982-.46973.6499-.93994.98975-1.39014,2.51025-3.41992,5.32031-6.29004,8.13037-8.36963.83984-.63037,1.66992-1.18018,2.5-1.6499,8.58984-4.92041,16.43994-1.71045,15.25,16.71973-1.16016,17.8501,8.8999,34.0498,19.08008,40.56006.93945.6001,1.86963,1.12012,2.7998,1.54004.8999.41992,1.7998.75,2.66992.98975.33008.09033.6499.16992.97998.22998,6.77002,1.39014,12.43994-2.77979,13.25-15.21973.43994-6.84033,2.73975-13.31006,6-18.6499.29004-.47998.6001-.95996.91016-1.43018,2.64014-3.93994,5.7998-7.16992,9.06982-9.31006.93994-.62988,1.87988-1.16016,2.83008-1.58984,12.42969-5.68994,24.72998,5.33984,14.81982,52.06982Z"/>
        <path class="cls-2" d="m714.07007,160.70845h-43.16016c.38037-29.58984,9.34033-70.58008,17.87012-90.45996.72998-1.72998,1.47021-3.2998,2.2002-4.68018,6.20996-11.83008,11.75-10.56006,12.96973,16.97998,1.75,39.41016,13.6001,66.56006,24.6499,78.16016"/>
        <path class="cls-2" d="m856.34009,162.30854c-1.7998-.6001-3.47998-1.16016-4.95996-1.6001h-104.36035c.48047-1.2998.8501-2.7998,1.11035-4.50977,2.45996-16.22021.7998-41.80029,2.87988-55,.22998-1.4502.50977-2.75.83984-3.88037,2.05029-6.98975,6.25-7.06982,15.12012,6.7002,9.22998,14.33008,18.45996,29.12988,26.58008,35.64014h.00977c.82031.66992,1.64014,1.23975,2.44043,1.71973,11.18994,6.70996,19.91992-5.08008,23.04004-60.43994,1.73975-30.8999,7.75-46.43994,14.95996-52.1001,1-.79004,2.01953-1.38965,3.05957-1.7998,15.31006-6.2002,33.89014,25.68994,29.63037,48.88965-6.6499,36.12012-18.83008,81.28027-7.76025,82.28027,1.93994.18018,5.12012,1.21973,8.93994,2.5"/>
        <path class="cls-2" d="m1232.05005,160.70845h-327.33008c3.64014-5.27002,4.32031-14.93994-.35986-31.6001-9.87012-35.1499-11.55029-54.25977-8.5-62.02002.43018-1.08984.93994-1.94971,1.5498-2.6001,2.34033-2.5498,5.93994-1.93994,10.25,1.09033,13.32031,9.34961,24.3999,31.41992,24.3999,57.52002,0,2.04004.39014,3.6499,1.09033,4.8501.6001,1.03955,1.43994,1.77979,2.45996,2.22949,12.93994,5.8501,55.56982-32.59961,31.90967-70.30957-11.2998-18.02002-1.38965-32.02002,12.2002-36.56006,2.58008-.87012,5.29004-1.39014,8.01025-1.52002,18.1001-.9502,36.75,14.79004,20.77979,58.1499-4.83008,13.10986-8.43994,24.60986-11.17969,34.72021,0,0,6.31982,18.08984,18.33984,23.93994,1.56982.77002,3.23975,1.32959,5.00977,1.60986,8.89014,1.3999,20.24023-4.22021,33.86035-25.5498,0,0,0-.01025.00977-.01025-1.95996-16.89014-7.81982-41.3999-11.75-62.79004-3.31006-18.02002,6.96973-41.20996,18.93994-48.22998,1.16992-.68994,2.35986-1.21973,3.55029-1.58008,11.37988-3.41992,23.21973,9.08008,25.7998,54.90039,2.02979,35.93994,6.39014,53.75977,12.25,60.13965.79004.86035,1.62012,1.52002,2.46973,1.97998,10.22021,5.55029,24.13037-17.11963,38.06006-38.72998,1.56006-2.41992,2.97021-4.41992,4.27002-6.02979.79004-1,1.55029-1.85986,2.25-2.57031,15.29004-15.48975,8.55029,35.15039,12.57031,61.47998.56982,3.74023,1.65967,6.5,3.1499,8.32031.72998.8999,1.5498,1.56006,2.45996,2.00977,11.70996,5.74023,36.5498-26.12012,39.16992-84.97998.3501-7.77002,1.02979-13.46973,1.97021-17.3999.35986-1.49023.75-2.72998,1.17969-3.71973,8.99023-20.96045,32.52002,63.88965,30.18018,108.85986-.29004,5.61963.39014,10.40967,1.81006,14.3999"/>
        <path class="cls-2" d="m1921.42017,160.70845h-628.66992c10.87988-12.8999,17.44971-34.08984,11.30957-63.0498-6.71973-31.68018-3.36963-47.17041,3.36035-52.24023,1.19971-.8999,2.5-1.46973,3.87988-1.74023,10.70996-2.11963,25.62988,13.89014,26.8501,32.59033.45996,7.08008,2.46973,11.50977,5.35986,13.79004,1.16992.92969,2.49023,1.5,3.91016,1.75,12.1499,2.14014,31.62988-19.39014,30.02979-44.01025-.58008-8.87012.91016-14.25977,3.58008-16.93994.93994-.94971,2.02979-1.56982,3.22998-1.87012,8.58008-2.17969,22.62012,11.39014,27.25,28.01025,3.89014,13.9502-1.96973,59.85986-1.25977,79.8501.06982,2.10986.21973,3.92969.45996,5.38965,1.63965,10.03027,7.59961,3.41016,24.00977-41.56006,12.6001-34.55957,22.41992-50.38965,30.52002-55.31982,1.34033-.81982,2.62012-1.33008,3.87012-1.58008,16.12988-3.31006,25.27979,37.07031,37.87988,45.43994,19.49023,12.9502-.3999,40.9502,34.41016,51.12012.47998.14014.94971.27002,1.40967.3999,4.28027,1.17041,7.77051,1.75,10.65039,1.78027,19.30957.16992,10.93994-24.54004,27.77979-61.4502,5.52979-12.11963,12.18994-19.08008,19.02002-21.90967,2.79004-1.16016,5.60986-1.63037,8.39014-1.48047,14.58008.77051,28.19971,18.47021,31.56982,43,1.53027,11.07031,5.5498,16.57031,11.01025,18.96045,12.07959,5.28955,31.18994-4.63037,45.8501-3.05029,3.05957.33008,5.92969,1.16016,8.48975,2.74023,3.62988,2.22998,7.06006,4.09961,10.22998,5.33008,2.43018.94971,4.70996,1.50977,6.81982,1.55957,10.6499.27002,16.8501-12.44971,15.31006-55.02979-.68994-19.08984,6.47998-29.51025,16.51025-33.43018,5.2998-2.06982,11.3999-2.33008,17.5498-1.08984,20.1001,4.03027,40.8501,23.95996,36.68994,48.75-2.48975,14.7998,7.83008,23.39014,23.11035,28.22021h.01953c28.09033,8.87988,72.91016,5.0498,85.67041,3.69971,2.25-.22998,3.5-.38965,3.5-.38965l.43994,43.75977Z"/>
        <path class="cls-1" d="m491.76001,160.70845c.09009-1.87988.11011-4.06006.07007-6.56006-.09009-6.39014-.55005-14.87012-1.22998-25.83984-.72998-11.66992-1.51001-24.33008-1.37012-34.05029.01001-1.36963.05005-2.67969.11011-3.91992.16992-3.67969.53003-6.75,1.13989-8.92969,4.46021-15.90039,17.38013-27.97021,24.8103-26.68018,1.37988.23975,2.54004.94971,3.45996,2.12012,1.90967,2.38965,2.83984,6.67969,2.69971,12.58984-.00977.76025-.0498,1.5498-.1001,2.37012v.00977c-.27979,4.27002.05029,8.58008.95996,12.80029.27051,1.27979.6001,2.55957.99023,3.81982,1.5,5.02979,3.83008,9.89014,6.91992,14.33984,5.79004,8.33008,13.41992,13.77002,19.91016,14.18994,3.22998.22021,6.0498-.7998,8.25-2.94971.27979-.28027.56006-.56982.81982-.89014,1.06982-1.29004,1.93018-2.87012,2.6001-4.72998.56006-1.54004.96973-3.27979,1.25-5.19971,0,0-.00977-.01025,0-.02051.14014-.96973.25-2,.31982-3.06982.92041-14.08008,10.03027-26.21973,18.31006-29.81982,2.6001-1.12988,6.32031-1.93994,9.58008.33984.16992.12012.3501.25.52002.39014,4.06006,3.31006,5.66992,10.06982,5.97021,17.75.0498,1.27002.06982,2.56006.0498,3.87012v.00977c-.12012,10.3999-2.18018,21.66992-3.56006,28.1499-2.62012,12.27002-3.04004,23.86035-1.33984,34.29004.31006,1.91992.68994,3.79004,1.1499,5.62012.0498.20996.1001.41992.16016.62988-.03027-.20996-.05029-.41992-.06006-.62988h3c-1.63037-6.29004-2.38037-13.12012-2.22021-20.37012.05029-2.87012.25-5.7998.6001-8.7998.37012-3.30029.93018-6.68018,1.66016-10.11035.19971-.91992.37988-1.81982.56006-2.69971.87988-4.3501,1.5498-8.3501,2.04004-12.01025,3.15967-23.50977-1.01025-33.50977-5.7002-37.67969-.14014-.12012-.27002-.24023-.41016-.3501-3.5498-2.91016-8.22998-3.31982-13.19971-1.16016-8.97998,3.91016-19.08008,16.58008-20.11035,32.39014-.32959,5.08984-1.50977,8.89014-3.48975,11.29004-.3999.47998-.83984.8999-1.2998,1.27002-1.46045,1.12012-3.23047,1.62988-5.26025,1.48975-5.51025-.35986-12.43018-5.42969-17.62988-12.90967-3.49023-5.03027-9.22021-15.5-8.34033-29.04004.58008-8.91992-.96973-13.97998-3.09961-16.81982-1.72021-2.31006-3.82031-3.16016-5.45996-3.44043-9.69043-1.6499-23.66016,12.63037-28.21021,28.83008-2.42017,8.64014-1.17993,28.6001.01001,47.91016.3501,5.6499.75,12.0498,1,18.02002.22998,5.37012.33008,10.37988.17993,14.18994m-118.57983,0c11.95996-6.74023,13.50977-16.93018,14.91992-26.12012,1.21997-7.98975,2.36987-15.5498,9.94995-20.5498,5.36987-3.54004,9.88013-12.07031,14.65991-21.08984,6.31006-11.90039,12.87012-24.23047,20.78003-23.67041,1.78003.12012,3.64014.89014,5.58008,2.32031,8.21997,6.04004,17.77002,23.7998,28.5,53.00977,6.68994,18.22998,11.36011,29.35986,14.75,36.1001m-137.61011,1.71973c-.75-.44971-1.41992-1.02979-2.02002-1.71973-3.09985-3.52002-4.42993-10-6.15991-18.43994-2.11011-10.28027-4.73999-23.08008-11.65991-38.1499-5.73999-12.49023-12.22021-18.72998-18.05005-21.66016-4.92993-2.45996-9.38013-2.58008-12.53003-2.10986-14.90991,2.19971-27.59009,20.1001-30.84009,43.52979-1.11987,8.0498-3.62988,13.3501-7.67993,16.20996-2.22998,1.58008-4.8501,2.37012-7.76001,2.64014-5.46997.52002-11.93994-.81006-18.65991-2.18018-1.41016-.29004-2.83008-.58008-4.23999-.84961-9.30005-1.80029-18.56006-2.92041-25.82007,1.50977-2.76001,1.68018-5.64014,3.31982-8.44995,4.52979-4.64014,2.02002-9.08008,2.89014-12.42017.93018-7.15991-4.18994-10.08984-21.06982-8.97998-51.62012.75-20.5498-7.50977-29.37012-14.56982-33.15967-.90015-.47998-1.83008-.91016-2.79004-1.28027-10.78003-4.18994-24.98999-1.50977-37.16016,7.22998-14.35986,10.32031-21.34985,25.82031-18.70996,41.4502,1.09009,6.42969-.33984,11.73975-4.36987,16.21973-6.42993,7.14014-26.28003,18.56006-87.02002,14.77002l-1.15015-.06982h-.02002l-.43994-.03027.07007,20.53027h3.01001l-.02002-6.33984-.01001-1-.03003-9.99023c14.09009.81006,33.31006,1.1499,50.64014-1.2002,15.68994-2.12988,29.82983-6.46973,37.19995-14.6499,1.36987-1.52002,2.47998-3.13965,3.34009-4.85986.28979-.56982.5498-1.1499.77002-1.75,1.40991-3.6499,1.75-7.70996,1-12.12988-.17017-1-.30005-2.01025-.38013-3.01025-.09009-1.0498-.13013-2.1001-.13013-3.13965.05005-12.33008,6.51025-24.08008,18.01025-32.3501,9.28979-6.68018,20.13989-9.6001,29.13989-8.22998,2.75.41992,5.32007,1.23975,7.62988,2.47998,7.98999,4.27979,12.43018,12.98975,12.96997,25.33008.06006,1.30957.07007,2.65967.04004,4.05957-.01001.33008-.02002.67041-.02979,1.01025-.51025,14.02979-.21021,25.12012.97998,33.6001.3999,2.8999.8999,5.48975,1.52002,7.79004,1.75977,6.63965,4.3999,10.84961,7.96973,12.93994,4.74023,2.77979,10.5,1.46973,16.47021-1.35986,2.47998-1.17041,4.98999-2.61035,7.47998-4.13037,4.63989-2.82959,10.51001-3.02979,16.73999-2.27002,3.6499.4502,7.42993,1.22998,11.15991,1.99023,9.3999,1.91992,19.07007,3.8999,26.39014.42969.81982-.38965,1.60986-.84961,2.36987-1.37988,4.76001-3.37012,7.67993-9.33984,8.92017-18.25,3.01978-21.77002,14.91992-39,28.2998-40.96973,2.78003-.41016,5.51001-.16016,8.15015.73975,7.30005,2.43994,13.93994,9.74023,19.25,21.31006,6.78003,14.75,9.36987,27.35986,11.44995,37.5,1.56006,7.56006,2.81006,13.66016,5.37988,17.83008m146.72998,0c-3.09985-5.97998-7.8999-17-15.2998-37.14014-10.81006-29.43994-20.19019-47-28.92017-53.90967-2.6499-2.09033-5.22998-3.20996-7.78003-3.38037-.23999-.02002-.47998-.02979-.71997-.02979-9.52002,0-16.32983,12.85986-22.91992,25.29004-4.38989,8.29004-8.92993,16.87012-13.65991,19.98975-8.69019,5.74023-10,14.31006-11.27002,22.61035-1.62012,10.66992-3.17017,20.77979-19.18018,26.56982-1.04004.37988-2.13989.72998-3.2998,1.06982-1.76001.51025-3.40015.93018-4.92017,1.25"/>
        <path class="cls-1" d="m1285.82007,160.70845c12.22998-15.08984,16.29004-37.85986,10.8501-63.35986-7.93994-37.22021-.89014-47.7002,2.50977-50.47998,2.66992-2.18018,5.70996-2.15039,8.24023-1.4502.71973.2002,1.3999.43994,2.00977.70996,8.40039,3.6499,17.64014,15.95996,18.58008,30.24023.66992,10.40967,4.58984,14.44971,7.75977,16.02002,3.31055,1.62988,7.3501,1.40967,11.65039-.58008,1.16016-.54004,2.34961-1.2002,3.54004-2,10.63965-7.10986,20.79004-23.8501,19.58984-42.10986-.68018-10.39014,1.50977-16.55029,6.16016-17.34033,1.2998-.21973,2.75977-.04004,4.31982.5,7.47998,2.54004,17.1001,13.20996,20.8501,26.55029,2.31982,8.25977,1.02002,29.13965-.12012,47.5498-1.87988,30.29004-2.1499,41.83008,2.45996,42.7998,1.51025.32031,3.2998-.19971,6.49023-5.52002,3.55957-5.91992,8.83984-17.77979,17.37988-41.0498,13.42969-36.56982,25.0498-55.43994,34.5498-56.08984.87988-.06006,1.75.02979,2.6001.25977,6.91992,1.89014,12.77979,13,18.47998,23.75,4.83984,9.14014,9.41016,17.77002,14.8501,21.35986,7.68994,5.08008,8.85986,12.74023,10.10986,20.8501,1.74023,11.39014,3.70996,24.31006,24.93018,30.45996,9.33008,2.70996,15.52002,2.9502,19.8501.74023.25-.12012.48975-.26025.72998-.3999,5.7998-3.5,7.42969-11.43018,9.68994-22.41016,2.10986-10.27002,4.73975-23.0498,11.6001-38.00977,6.62988-14.4502,15.3501-22.32031,24.77979-22.54004,1-.03027,2.00977.02979,3.02002.17969,13.56982,2,25.62988,19.47021,28.68994,41.54004,1.26025,9.03027,4.20996,15.08008,9.04004,18.49023,7.6001,5.36963,18.5498,3.12988,29.14014.95996,10.23975-2.1001,20.83008-4.27002,28.27979.27979,8.56006,5.22021,17.41016,9.52002,24.18994,5.60986.02002-.00977.05029-.02979.07031-.04004,8.52979-4.98975,11.7998-21.96973,10.6001-55.0498-.56006-15.25,3.98975-25.91016,13.15967-30.81982,2.41016-1.29004,5.10986-2.14014,7.99023-2.55029,9.06982-1.30957,19.94971,1.66016,29.2998,8.37012,13.59033,9.77002,20.22998,24.35986,17.74023,39.04004-1.29004,7.66992.62988,14.25,5.70996,19.5498,21.68994,22.63037,94.8999,15.34033,107.29004,13.92041l.42969,42.06982h3.01025l-.43994-43.37012-.02002-2.08984-1.68018.20996c-.6499.08008-51.06982,6.25977-83.97021-1.81982h-.01953c-9.45996-2.32031-17.47021-5.83008-22.43018-11-4.4502-4.64014-6.05029-10.18994-4.91016-16.96045,2.68018-15.84961-4.40967-31.53955-18.95996-42-4.31982-3.10986-8.8999-5.45996-13.5-7.00977-9.66992-3.29004-19.3999-3.06982-26.95996.99023-7.1499,3.82959-15.51025,12.76953-14.75,33.57959,1.12012,30.97021-1.85986,48.09033-9.10986,52.34033-1.58008.92969-3.40039,1.22998-5.37012,1.08008-4.83008-.3501-10.54004-3.40039-15.7998-6.61035-.94043-.56982-1.91016-1.06006-2.91992-1.45996-8.02051-3.19971-17.92041-1.17969-27.54004.79004-6.56006,1.33984-12.89014,2.64014-18.31006,2.26025-3.18994-.22021-6.06006-1.02002-8.47998-2.72998-4.11035-2.91016-6.66016-8.28027-7.80029-16.44043-2.91992-21.10986-13.3999-37.77979-26.2998-42.79004-1.60986-.62988-3.25-1.06982-4.93018-1.31982-6.95996-1.02979-20.25.74023-30.96973,24.08008-7.01025,15.27002-9.68018,28.23975-11.82031,38.66016-2.09961,10.22998-3.62012,17.62988-8.2998,20.44971-2.27002,1.37012-5.47021,1.77002-9.82031,1.18994-2.41992-.31006-5.18994-.92969-8.35986-1.84961-19.37988-5.62012-21.04004-16.5-22.7998-28.02002-1.29004-8.40039-2.60986-17.09033-11.41992-22.91016-4.80029-3.16992-9.3999-11.85986-13.8501-20.25977-5.22021-9.86035-10.56006-19.99023-17.27002-23.92041-2.08008-1.21973-4.29004-1.83984-6.66992-1.67969-11.1001.75-22.91016,19.19971-37.17041,58.06006-7.11963,19.38965-11.86963,30.42969-15.01953,36.68994-3.12012,6.18994-4.66992,7.67969-5.40039,7.92969-2.3999-2.31982-1.05957-23.85986-.08984-39.62988,1.22021-19.56982,2.47021-39.7998.02002-48.5498-3.44971-12.27002-12.22021-23.43994-20.52002-27.61035-2.81982-1.40967-5.58008-2.02002-8.06006-1.59961-3.68994.62988-9.71973,4.13965-8.6499,20.50977,1.12012,17.10986-8.33984,32.77979-18.25977,39.3999-2.01025,1.34033-3.95996,2.27002-5.78027,2.76025-2.3999.64014-4.58984.52979-6.41016-.37012-3.51953-1.73975-5.62988-6.41016-6.08984-13.51025-1.02002-15.61963-10.79004-28.21973-19.70996-32.5-.22998-.10986-.4502-.20996-.66992-.30957-5.02002-2.18018-9.77002-1.76025-13.36035,1.16992-10.50977,8.6001-7.72949,33.7998-3.53955,53.42969,5.47998,25.69043,1.03955,48.43018-11.87012,62.74023m-386.7002,0c3.80029-6.35986,3.56006-16.89014-.70996-32-14.54004-51.5-9.56006-61.72021-6.75-63.72021,2.12012-1.50977,5.39014.16016,7.77002,1.82031.12988.08984.26025.17969.39014.27979,11.77002,8.47998,23.52002,28.9502,23.52002,56,0,6.04004,3.16992,8.05029,5.06006,8.70996,2.97998,1.04004,6.91992.37988,11.16992-1.62012,5.75977-2.69971,12.1001-7.86963,17.45996-14.59961,14.10986-17.75,15.8999-38.87988,4.77002-56.51025-6.66016-10.5498-6.22998-20.81006,1.18994-28.15967,5.35986-5.31006,13.22998-7.97021,20.68994-7.6001,4.25.19971,8.36035,1.36963,11.81006,3.6001,12.47998,8.04004,14.25,27.17969,4.87012,52.50977-4.5,12.1499-8.31006,23.87012-11.30029,34.83984l-.11963.45996.15967.44043c.3501,1.00977,8.8501,24.68994,25.39014,26.62988,3.31982.38965,6.70996-.14014,10.1499-1.58008,7.86035-3.28027,15.99023-11.31982,24.27002-24.0498h.87012l-.18994-1.68018c-1.28027-10.9502-4.12988-24.77002-7.1499-39.3999-1.61035-7.82031-3.28027-15.90039-4.68018-23.49023-3.1001-16.75,5.93018-37.18994,15.97998-45.06006,2.9502-2.31006,7.35986-4.61963,11.95996-2.8999.2002.07031.41016.16016.60986.25,5.38037,2.43018,14.75,12.57031,17.05029,53.16016,2.33984,41.19971,7.89014,61.56982,17.47998,64.10986,2.8501.76025,5.83984-.06982,8.92969-2.08008,8.5-5.50977,17.83008-19.93994,27.56006-34.96973l1.91016-2.93994c6.97998-10.78027,9.81982-10.95996,10.52002-10.76025,1,.29004,1.75977,1.70996,2.33984,3.91016,1.59033,6.12988,1.78027,18.29004,1.93018,28.6001.16992,10.75.33984,21.85986,1.66992,30.54004,1.75,11.47949,7.97021,12.37988,10.56982,12.25,2.02051-.1001,4.12012-.84033,6.26025-2.15039,5.72998-3.48975,11.70996-11.06982,16.87012-21.60986,5.77979-11.83984,12.95996-32.43994,14.33984-63.2998.87012-19.43018,3.79004-22.41016,4.66016-22.86035.14014-.07959.47998-.25977,1.25.24023,1.21973.79004,2.57959,2.56006,4.02002,5.1499,4.05957,7.31006,8.77002,21.16992,12.72998,38.00977,5.83984,24.77051,8.77979,49.84033,7.87988,67.05029-.29004,5.43018.31006,10.2998,1.72998,14.47998m-495.75977,0c.40967-1.22998.75-2.6499,1-4.28027,1.30957-8.5498,1.46973-19.50977,1.62988-30.09961.20996-13.82031.47998-31.02002,4.20996-32.09033.60986-.17969,2.79004-.06982,7.87988,6.96045.77002,1.0498,1.58984,2.25977,2.49023,3.63965l1.86963,2.8999c12.22998,18.92041,23.83008,36.8501,33.92041,36.8501.70996,0,1.40967-.08984,2.10986-.27979,1.6499-.43994,3.18994-1.41016,4.6001-2.93018,6.68994-7.20996,10.75977-26.77979,12.65967-60.3501,2.27002-40.02979,11.5-50.02979,16.81006-52.42969,3.02002-1.37012,5.99023-.8999,8.53027.23975,1.43994.6499,2.75,1.51025,3.84961,2.37988,9.91016,7.76025,18.83008,27.92041,15.77002,44.44043-1.36963,7.41992-3.00977,15.32959-4.57959,22.96973-5.76025,27.91992-10.74023,52.02002-5.59033,58.9502.93018,1.25977,2.22021,2,3.70996,2.12988,1.01025.08984,2.47021.46973,4.22021,1,1.47998.43994,3.16016,1,4.95996,1.6001m-138.0498-1.6001c-3.61035-3.43018-7.65039-8.89014-11.59033-16.9502-7.89014-16.15967-12.81006-37.91992-13.8501-61.27979-.34961-7.83984-1.02979-13.22021-1.86963-16.91016-1.30029-5.75977-2.97998-7.46973-4.34033-8.16992-.91992-.47998-2.3999-.7998-4.22998.37988-10.25977,6.63037-25.39014,63.82031-25.81982,102.93018h3.02979c.56006-37.1499,15.16016-94.41992,24.43018-100.3999.74023-.47998,1.06982-.31006,1.20996-.24023.62012.32031,2.31006,1.95996,3.52002,10.18018.4502,3.08984.83008,7.12012,1.06982,12.35986,1.36035,30.45996,8.44043,50.78027,14.15039,62.47021,3.12988,6.40967,6.56982,11.69971,10.06982,15.62988m147.04004,0c-1.33008-.43018-2.60986-.85986-3.81982-1.25977-4.27051-1.41016-7.64014-2.53027-9.86035-2.74023-.6499-.0498-1.12988-.33984-1.56006-.91992-4.3501-5.8501,1.21045-32.79004,6.11035-56.55029,1.57959-7.65967,3.21973-15.57959,4.6001-23.02979,3.25-17.58008-6.28027-39.06006-16.87012-47.35986-.87988-.68994-1.77002-1.30029-2.65039-1.81006-4.41992-2.58984-8.80957-3-12.82959-1.18018-10.38037,4.68994-16.80029,23.70996-18.57031,55-1.87988,33.10986-5.93994,52.83008-12.1001,58.80029h-.00977c-.91992.88965-1.8999,1.47998-2.91992,1.75-8.43994,2.23975-21.3501-17.70996-32.72998-35.30029l-1.88037-2.8999c-1.48975-2.31006-2.87988-4.25977-4.16992-5.89014-3.86963-4.86963-6.8999-6.75-9.5498-5.97998-5.6001,1.61035-6.06982,14.33008-6.37988,34.93994-.16016,10.5-.33008,21.3501-1.61035,29.7002-.20996,1.37988-.58984,3.12012-1.23975,4.72998m502.18994,0c-1.56006-4.03027-2.22998-8.85986-1.93994-14.31982,1.8501-35.22021-11.58008-92.42041-22.43018-108.93994-1.22998-1.87012-2.42969-3.22021-3.56982-3.96045-1.83984-1.18994-3.33008-.86963-4.26025-.38965-2.25977,1.16992-5.37988,5.06982-6.27979,25.3999-2.02979,45.35986-18.26025,76.75-30.66992,83.04004-1.37988.69971-2.7002,1.08984-3.95996,1.16016-5.12012.27979-6.87012-5.96045-7.43994-9.7002-1.30029-8.47998-1.47021-19.49023-1.62988-30.12988-.22021-14.76025-.52051-25.52002-2.69043-31.13037-.88965-2.31982-2.09961-3.77002-3.75977-4.23975-3.5498-1.01025-7.83008,2.68994-13.87988,12.02002l-1.91016,2.94971c-9.20996,14.24023-19.3999,30.01025-27.5,34.62012-2.0498,1.16016-3.95996,1.61035-5.68994,1.1499-7.91992-2.08984-13.05029-22.73975-15.24023-61.36963-1.69971-29.95996-7.60986-48.82031-17.11963-54.82031-.55029-.34961-1.12012-.65967-1.7002-.91992-4.89014-2.20996-10.31006-1.16016-15.66992,3.03027-10.72021,8.40967-20.37988,30.17969-17.08008,47.97998,1.41016,7.61963,3.08008,15.70996,4.68994,23.5498,2.95996,14.31982,5.75,27.85986,7.05029,38.58984-9.46045,14.6001-18.49023,22.75-26.91016,24.32031-1.62012.31982-3.22021.37988-4.79004.19971-13.54004-1.58984-21.54004-21.06006-22.74023-24.20996,2.94043-10.75,6.66992-22.22998,11.08008-34.12988,5.33984-14.3999,7.24023-26.75977,5.64014-36.72021-1.37988-8.61963-5.41992-15.31982-11.7002-19.35986-1.68994-1.08008-3.50977-1.9502-5.42969-2.58984-10.18018-3.4502-22.93994-.82031-30.82031,6.98975-8.50977,8.42041-9.1001,20.05029-1.61963,31.8999,15.01953,23.78027,1.7998,45.01025-4.58008,53.03027-5.80029,7.29004-12.30029,12.08984-17.56006,14.24023-3.16016,1.30957-5.87012,1.6499-7.72021,1.00977-2.02002-.70996-3.04004-2.68018-3.04004-5.87012,0-28.27002-12.50977-49.75977-24.97998-58.6001-.06982-.0498-.14014-.09961-.20996-.1499-5.75-4.00977-9.29004-3.18994-11.23975-1.7998-7.36035,5.22998-5.47021,27.77002,5.59961,66.97998,4.39014,15.54004,4.3501,26.02002-.08984,31.18994-.21973.25977-.43994.49023-.67969.71973"/>
        <path class="cls-1" d="m490.69019,160.70845c-.11011-3.14014-.28027-6.58984-.5-10.33984-.17017-3.13037-.38013-6.47021-.6001-10-1.13013-18.31006-2.31006-37.22998-.36011-46.11035.09009-.3999.17993-.77002.28003-1.12988,3.08008-10.98975,11.8999-23.04004,20.12012-26.52002,2.00977-.8501,3.97998-1.18018,5.83008-.87012,2.77002.47021,4.75977,2.56006,5.88965,6.07031v.00977c.98047,3.01025,1.32031,7.08008,1,12.07031-.01953.23975-.02979.47998-.04004.72998-.50977,10.25977,2.59033,20.72998,8.74023,29.58008,5.60986,8.08984,12.9502,13.36963,19.14014,13.76953,3.31006.20996,6.15967-.98975,8.22998-3.47998,1.7998-2.17969,3.00977-5.27979,3.60986-9.25.1499-1.00977.27002-2.06982.33984-3.18994.93994-14.46973,10.3501-26.95996,18.91016-30.67969,3-1.30029,7.35986-2.20996,11.12988.86963,1.88037,1.54004,4.1001,4.55029,5.39014,10.40039v.00977c1.24023,5.62988,1.6001,13.91992-.0498,26.08008-.53027,3.85986-1.25,8.12012-2.22021,12.81006-.1001.48975-.19971.97998-.31006,1.46973-1.62988,7.65039-2.3999,15.06006-2.31982,22.08008.02002,1.91016.1001,3.78027.25,5.62012h.8999c.0498.20996.1001.41992.16016.62988-.03027-.20996-.05029-.41992-.06006-.62988-.52002-6.4502-.26025-13.28027.77979-20.37012.33984-2.33984.77002-4.71973,1.28027-7.12012,2.1499-10.09961,3.34961-18.98975,3.58008-26.5.23975-7.36963-.44043-13.40967-2.04004-17.94971-1.11035-3.2002-2.68018-5.66016-4.7002-7.31006-2.93018-2.3999-6.75-2.91992-10.85986-1.52002-.43018.1499-.87012.31982-1.31006.51025-8.5498,3.70996-14.93018,13.25-17.83008,22.72949-.00977.01025,0,.02051,0,.02051-.5498,1.75-.95996,3.5-1.25,5.19971-.20996,1.22021-.3501,2.41992-.43018,3.58008-.06982,1.06006-.16992,2.06982-.31982,3.02979-.56982,3.82031-1.7002,6.79004-3.3999,8.84033-1.88037,2.27002-4.37012,3.31982-7.39014,3.11963-5.8999-.38965-12.93994-5.5-18.39014-13.33984-5.27002-7.58008-8.23975-16.37988-8.56982-25.18994-.06982-1.5-.0498-3,.0498-4.48975.45996-7.13037-.44971-11.65039-1.8999-14.51025-1.65967-3.31006-4.0498-4.39014-5.83008-4.68994-1.56982-.27002-3.25977-.08984-5,.46973-7.97998,2.55029-17.12988,13.06006-21.27979,25.12012-.29004.83008-.55005,1.66992-.79004,2.52002-2.37988,8.47998-1.1499,28.3501.04004,47.58008.1499,2.35986.29004,4.75.43994,7.14014.26001,4.50977.5,8.98975.6499,13.12988m-109.5.58984c.11011-.18994.2002-.38965.29004-.58984,2.16016-4.5,2.91016-9.41992,3.65015-14.27002,1.25-8.22021,2.43994-15.98975,10.38989-21.22998,5.16016-3.41016,9.61011-11.81982,14.33008-20.72998,6.15991-11.62012,12.52002-23.58984,20.55005-24.18994.38989-.03027.78003-.03027,1.17993-.01025,9.92993.67041,21.35986,18.97998,34.94995,55.97998,3.76001,10.25,6.88013,18.24023,9.48999,24.4502m-141.12988,0c-.43994-1.93994-.87012-4.02002-1.32007-6.24023-2.1001-10.22998-4.71997-22.96973-11.59009-37.92969-7.63989-16.64014-18.12988-24.87012-29.52979-23.2002-.90015.12988-1.79004.32031-2.66016.57031-13.30005,3.75977-24.33984,20.54004-27.33008,42.10986-.42993,3.15967-1.08984,5.90967-1.96997,8.27979-1.41992,3.87988-3.45996,6.72998-6.11987,8.61035-6.79004,4.7998-16.70996,2.76953-27.2002.61963-10.47998-2.13965-21.30981-4.35986-29.33984.53027-5.34009,3.25977-10.77002,6.1499-15.51001,6.6499-1,.12012-1.95996.12012-2.88989,0-1.24023-.16016-2.41016-.53027-3.5-1.16992-4.75-2.78027-7.71021-10.32031-8.97998-23.20996-.77002-7.78027-.92017-17.51025-.49023-29.32031.26001-7.04004-.55981-12.65967-2.02002-17.13965-2.69995-8.29004-7.59985-12.72021-12.02002-15.09033-8.0498-4.31982-19.08984-3.94971-29.5498.57031-3.2002,1.37988-6.3501,3.15967-9.34009,5.31006-8.23999,5.91992-14.01001,13.57959-16.84009,21.97998-1.98975,5.90967-2.53979,12.18994-1.46997,18.47998.09009.52002.16016,1.04004.21021,1.5498.53979,4.91992-.4502,9.2998-2.9502,13.08008-.5498.83984-1.17993,1.6499-1.87988,2.42969-14.95996,16.63037-59.83008,16.74023-86.32007,15.19043-.51001-.03027-1.01001-.06006-1.51001-.09033l-.53003-.04004.02002,7.47021h1l-.02002-6.3999c.3501.02002.69995.04004,1.05005.06006,26.67993,1.55957,71.83008,1.40967,87.06006-15.52002,1.05005-1.17041,1.94995-2.3999,2.68994-3.7002,2.34009-4.12988,3.07007-8.87988,2.16992-14.18994,0-.00977,0-.03027-.00977-.04004-.86011-5.12988-.62012-10.24023.61987-15.14014,2.34009-9.31006,8.31006-17.85986,17.29004-24.31006,2.29004-1.63965,4.66992-3.05957,7.09009-4.22998,10.76978-5.2998,22.41992-6.03955,30.75-1.57959,4.84985,2.59961,10.31982,7.81982,12.52979,18.26953.78003,3.67041,1.16016,7.97021.97998,13.04004-.2998,8.15039-.30981,15.33008-.02979,21.57031.80981,18.12012,4.06982,28.38965,9.98975,31.85986.19019.10986.38013.20996.57007.31006,3.17993,1.58984,6.87012,1.31006,10.78003,0,3.73999-1.24023,7.68994-3.41992,11.58008-5.79004,7.68994-4.68994,18.33008-2.50977,28.61987-.3999,10.71021,2.18994,20.83008,4.25977,27.98022-.79004,2.93994-2.06982,5.13989-5.22021,6.63989-9.52002.82983-2.33984,1.44995-5.02002,1.86987-8.0498,2.84009-20.5,12.99023-36.57031,25.3501-40.89014,1.23999-.43018,2.51001-.75,3.79004-.93994,10.91992-1.61035,21.03003,6.42969,28.45996,22.62988,6.83008,14.85986,9.42993,27.52979,11.53003,37.70996.43994,2.14014.84985,4.16016,1.27002,6.04004m143.25,0c-2.64014-6.25977-5.82007-14.37012-9.64014-24.79004-13.92993-37.93018-25.30981-55.93018-35.82983-56.64014-.20996-.00977-.40015-.02002-.6001-.02002-8.95996-.04004-15.62012,12.55029-22.08008,24.75-4.6499,8.79004-9.0498,17.09033-14,20.36035-8.30981,5.48975-9.58984,13.83984-10.82983,21.91992-.75,4.8999-1.51001,9.88965-3.80005,14.41992-.20996.41016-.42993.81982-.66016,1.20996"/>
      </g>
      <path class="cls-3" d="m185.76001,160.70845c-3.90991,1.31006-7.6001,1.58984-10.78003,0h10.78003Z"/>
      <path class="cls-3" d="m332.8501,160.70845h48.66992c-.42993.20996-.87988.3999-1.34009.58984"/>
      <path class="cls-3" d="m475.01001,160.70845h16.75"/>
      <path class="cls-3" d="m494.92993,160.70845h9.16992"/>
      <path class="cls-3" d="m594.21021,161.33833c-.06006-.20996-.11035-.41992-.16016-.62988h.1001c.00977.20996.02979.41992.06006.62988Z"/>
      <path class="cls-3" d="m714.07007,160.70845h32.94971"/>
      <path class="cls-3" d="m856.34009,162.30854c-1.7998-.6001-3.47998-1.16016-4.95996-1.6001h53.33984"/>
      <path class="cls-3" d="m1232.05005,160.70845h60.7002"/>
    </g>
  </g>
</svg>