<?xml version="1.0" encoding="UTF-8"?>
<svg id="Layer_2" data-name="Layer 2" xmlns="http://www.w3.org/2000/svg" viewBox="0 0 194.53629 194.54057">
  <g id="END">
    <g>
      <path d="m194.47996,97.29297c-.00002,17.87001-.20089,35.74285.05216,53.60928.29859,21.08161-15.46863,40.48778-37.88773,43.27552-1.85145.23024-3.72995.34047-5.59598.34149-35.86257.01967-71.72515.03202-107.58771.00828-21.81888-.01444-39.91026-15.71586-43.04576-37.32201C.12474,155.20578-.0008,153.18277,0,151.15c.01426-35.9478-.00601-71.89562.01662-107.84341C.02983,22.33753,14.70619,4.67663,35.30996.76508,38.07162.2408,40.87028.00968,43.67834.0089,79.43696-.00097,115.19557-.00312,150.95419.00492c21.5601.00484,39.38403,15.01183,43.05425,36.22616.40882,2.36309.47772,4.74726.4765,7.14018-.0091,17.9739-.00495,35.94781-.00499,53.92171Zm-162.94946-.01814c0,9.35033-.00812,18.70066.00759,28.05096.0028,1.66083-.03105,3.33909.18164,4.97957,2.44329,18.84471,18.09011,32.66836,37.08337,32.71501,18.97041.0466,37.94107.01149,56.91161.00763,1.7143-.00034,3.41856-.08587,5.12782-.30648,18.00953-2.32451,32.17917-18.13531,32.25806-36.24087.08489-19.47977.01864-38.96018.01951-58.44031.00011-2.40006-.30921-4.77016-.82693-7.10285-3.83825-17.2946-18.73238-29.36341-36.43551-29.41851-19.07429-.05937-38.14893-.01478-57.22343-.00764-1.19453.00045-2.39777-.01049-3.58227.11853-20.59625,2.24352-33.95651,19.83999-33.55715,37.43857.21325,9.39758.03784,18.80398.0357,28.2064Z"/>
      <path d="m42.3918,97.18619c-.0007-9.40116-.01451-18.80235.00246-28.20347.02684-14.87424,11.74978-26.60919,26.63611-26.62813,18.86405-.02398,37.72815-.02359,56.59221.00025,13.80489.01744,25.1216,10.3547,26.46055,24.07275.13667,1.40017.19064,2.79469.19051,4.19698-.00173,18.23097.06075,36.46223-.02692,54.69276-.04348,9.0395-3.73097,16.39666-11.03028,21.81221-4.47147,3.31755-9.57001,5.02291-15.13,5.03783-19.17573.05139-38.35182.06468-57.52751.00569-14.29722-.04397-26.10283-11.89252-26.15917-26.16015-.03794-9.60877-.00723-19.2178-.00795-28.82672Zm21.32198.04671c-.00838,18.60551,14.96928,33.62489,33.54414,33.63756,18.52475.01263,33.77337-15.07684,33.66863-33.57125-.10966-19.36241-15.65145-33.62096-33.60289-33.633-18.59559-.01247-33.60151,14.96778-33.60988,33.56668Zm76.69602-35.69342c-.00114-4.50173-3.37491-7.89059-7.84769-7.8828-4.38372.00764-7.93776,3.52293-7.9559,7.86914-.01795,4.30342,3.62111,7.93408,7.93911,7.92076,4.45039-.01373,7.86563-3.44745,7.86448-7.9071Z"/>
      <path d="m119.9283,97.25423c-.00499,12.56809-10.10876,22.7156-22.66654,22.76469-12.32809.04822-22.72276-10.39929-22.70195-22.81737.02066-12.33468,10.3635-22.68277,22.67486-22.68634,12.51203-.00363,22.69862,10.20332,22.69363,22.73902Z"/>
    </g>
  </g>
</svg>