<?xml version="1.0" encoding="UTF-8"?>
<svg id="Layer_2" data-name="Layer 2" xmlns="http://www.w3.org/2000/svg" viewBox="0 0 134.92096 53.93652">
  <defs>
    <style>
      .cls-1 {
        fill: #fff;
      }
    </style>
  </defs>
  <g id="HERO">
    <g>
      <path class="cls-1" d="m89.9928,14.70813c-2.44111-.15332-4.98219.31117-7.43471,1.18291-2.63839.93781-4.81253,2.56867-6.38528,4.89522-1.1469,1.6966-1.83362,3.59729-1.66869,5.67691.24578,3.09899,2.09616,5.17019,5.24607,5.54114,2.40221.28289,4.66525-.21682,6.85063-1.19455.50487-.22588.99279-.51424,1.55611-.59249.37888-.05263.74496-.07514,1.08658.1741.59858.4367.61184,1.19059-.01889,1.5796-.43934.27097-.90206.51691-1.38022.71015-2.16762.87603-4.37391,1.66458-6.75293,1.56987-2.16956-.08636-4.23514-.66791-5.92591-2.07767-1.54694-1.28985-2.46364-3.00502-2.72502-5.02475-.5268-4.07081,1.03658-7.31636,3.94082-10.06646,2.53336-2.3989,5.64335-3.48631,8.97494-4.1183,3.78069-.71718,7.53436-.38283,11.26995.33465.71698.13771,1.41381.38866,2.13212.55155,1.38808.31477,1.59715,1.02758,1.24955,2.28865-.71325,2.58764-1.76582,5.06087-2.88292,7.50546-.7025,1.53732-1.40631,3.07277-2.17639,4.57702-1.64032,3.20413-3.4072,6.33589-5.28219,9.41076-1.22366,2.00673-2.53733,3.94763-3.9003,5.85831-1.72563,2.41905-3.60368,4.72036-5.8045,6.71723-1.30274,1.18202-2.64068,2.36258-4.29988,3.08085-2.14123.92695-4.29205.8049-6.39718-.01825-1.45345-.56833-2.01837-2.00118-1.70498-3.81432.29786-1.72328,1.23127-3.12922,2.25479-4.48665,1.37547-1.8242,3.03299-3.38374,4.87432-4.70447,1.86741-1.33943,3.78791-2.63874,6.03107-3.32615.26555-.08138.51914-.20221.77724-.30728.42467-.17286.84392-.19444,1.27403-.00273.43233.19269.65446.5371.6602.98185.00582.45176-.29296.73153-.70613.8613-1.00911.31693-2.00362.67802-2.94334,1.15855-1.18629.60661-2.3008,1.333-3.37872,2.12179-1.20806.88403-2.35169,1.83482-3.39423,2.90821-1.22497,1.26123-2.32372,2.61539-3.11677,4.19587-.72439,1.44364.01209,2.63065,1.61011,2.87483,1.64842.25188,2.9512-.35939,4.29876-1.16649,1.54264-.92393,2.77682-2.15911,4.02167-3.4138,1.46352-1.47508,2.71236-3.12324,3.93846-4.78549,1.48624-2.01493,2.89462-4.08488,4.20408-6.22375,1.17461-1.9186,2.25627-3.88702,3.35119-5.84947,1.28904-2.31037,2.47056-4.67363,3.56817-7.08089.91644-2.00995,1.74713-4.05341,2.52229-6.12052.05574-.14863.11154-.29799.15396-.45072.23801-.85693.16583-.9859-.70053-1.18339-2.19952-.50138-4.41556-.86341-6.8674-.74822Z"/>
      <path class="cls-1" d="m39.77921,19.22569c-2.62718.04017-5.44689.43729-8.14323,1.53056-2.71033,1.09895-5.20027,2.56821-7.22904,4.67773-1.59428,1.65774-2.94753,3.52907-3.32907,5.88525-.28171,1.73969.016,3.30358,1.72082,4.27515.94696.53967,1.99674.64025,3.04849.68066,3.1774.12207,6.12071-.84432,9.03488-1.95891.57785-.22101,1.13029-.58159,1.81463-.46849.4249.07023.72.25655.80331.67314.08376.41884-.05125.77591-.40841,1.05007-.47111.36162-1.04269.49342-1.57429.7092-2.40646.9768-4.87885,1.72092-7.46975,2.02644-2.17417.25638-4.29928.13987-6.29235-.87021-1.76152-.89272-2.71386-2.39407-2.90837-4.30636-.258-2.53641.69756-4.7572,2.07935-6.81567,1.54655-2.30391,3.64966-3.99869,5.965-5.4875,2.44959-1.57514,5.12077-2.53252,7.95077-3.09755,1.91274-.38189,3.83464-.57965,5.80171-.52766,2.15289.0569,4.26952.32108,6.37483.7087,1.10376.20322,1.59812.72556,1.66868,1.51838.02359.26512-.0112.51623-.14653.74726-1.0864,1.85467-2.33543,3.60397-3.56468,5.36213-1.52263,2.17778-2.74666,4.50712-3.81856,6.92635-.4274.96462-.82309,1.93419-.94935,2.99921-.10797.91073.08966,1.13437,1.01471,1.14577,2.73264.03366,5.08918-1.10951,7.43662-2.30764.84738-.43251,1.61383-1.02003,2.54227-1.29987.48367-.14579,1.15446-.00212,1.3132.384.198.48165.11416.95069-.3075,1.29717-.57264.47055-1.24356.79045-1.89302,1.13185-1.9203,1.00943-3.86959,1.97369-5.99078,2.48611-1.41122.3409-2.85151.57592-4.31363.27534-1.25423-.25786-1.96328-1.08391-2.0349-2.36976-.09266-1.66379.47532-3.18125,1.14513-4.64455.80009-1.7479,1.66107-3.47063,2.67706-5.11106.71084-1.14772,1.41582-2.29703,2.2081-3.39218.57015-.78812,1.1218-1.59068,1.65287-2.40555.40135-.61584.23647-.94883-.5011-1.04616-1.69808-.22409-3.40325-.36332-5.37788-.38136Z"/>
      <path class="cls-1" d="m122.58461,8.21596c2.06365-.05545,4.08503.31118,6.11246.59936.46851.06659.93971.20592,1.37547.39177.93321.398,1.22015,1.40797.62108,2.36808-.79945,1.28122-1.6777,2.51321-2.51492,3.77112-1.46931,2.2076-2.74312,4.52-3.80074,6.95472-.50016,1.15139-1.03455,2.28347-1.23604,3.5359-.00946.05886-.02982.11601-.03876.17492-.15692,1.03585-.02207,1.17812,1.01051,1.20672,1.75411.04858,3.38456-.3768,4.95272-1.14739,1.25141-.61495,2.50095-1.2276,3.6944-1.95108.25312-.15345.53367-.27933.8181-.35976.48833-.1381.93863.00388,1.20703.42685.27103.42708.10289.84767-.2278,1.19231-.40558.42269-.91865.71219-1.42343.9781-1.95238,1.02849-3.87424,2.13524-6.05106,2.65745-1.20069.28804-2.39695.59254-3.65278.40619-2.14012-.31756-2.72672-1.45567-2.50366-3.51051.20445-1.88361.97616-3.60121,1.78473-5.29053,1.49866-3.13109,3.36011-6.04861,5.3195-8.90662.37767-.5509.2522-.85252-.45272-.96231-2.10623-.32803-4.21201-.54048-6.35891-.38633-2.30579.16556-4.5535.57006-6.69176,1.41703-3.90726,1.54768-7.12704,3.9598-9.1508,7.73799-.71833,1.34106-1.09205,2.80331-.82313,4.32178.25421,1.43547,1.20099,2.35377,2.58792,2.76871,1.39344.41688,2.82106.36468,4.24883.18979,2.45142-.30029,4.75447-1.11873,7.04109-1.99752.25916-.0996.51528-.21534.80224-.22347.51942-.01472.95456.11841,1.14617.66037.1683.47599-.01688,1.00507-.55209,1.24528-.88851.39878-1.81153.72171-2.72357,1.06724-1.94726.73773-3.96732,1.1958-6.03028,1.42017-1.98897.21632-3.94338.04422-5.76608-.89155-2.20819-1.13368-3.31538-3.55959-2.93046-6.07953.49518-3.24187,2.20811-5.74624,4.54041-7.91153,3.18282-2.9549,6.95579-4.71183,11.21714-5.45306,1.47126-.25592,2.95425-.42144,4.4492-.42063Z"/>
      <path class="cls-1" d="m1.0053,45.16838c-.70015-.00368-1.13641-.56132-.96983-1.31562.24877-1.12642.69075-2.19545,1.04135-3.29182.59542-1.86197,1.47379-3.60557,2.26251-5.38367,1.04092-2.34667,2.33901-4.56304,3.70712-6.73628,1.36668-2.17097,2.77709-4.31213,4.3579-6.33519.96705-1.23759,1.78575-2.59359,2.86007-3.74146,1.17849-1.25919,2.18964-2.65777,3.40516-3.88884,1.04677-1.06016,2.17701-2.0693,3.11244-3.19954,1.25279-1.51371,2.79059-2.70312,4.13052-4.10734.91765-.96168,1.9793-1.82715,3.03802-2.66203.25693-.20261.57601-.34326.86964-.49804.41948-.22111.77395.00986,1.03748.34748.28313.36274.37138.76144.03892,1.14166-.20822.23813-.44128.46156-.69166.65481-1.52911,1.18024-2.79454,2.64545-4.24679,3.9063-1.13967.98947-2.08939,2.1596-3.15711,3.21765-1.29198,1.28027-2.44044,2.70727-3.62373,4.09399-1.134,1.32896-2.28413,2.64925-3.33489,4.04276-1.38737,1.83991-2.68797,3.74523-4.02002,5.62657-1.34711,1.9026-2.46761,3.94222-3.63241,5.95697-1.37523,2.37873-2.48395,4.87811-3.57565,7.39197-.55645,1.28135-.94978,2.61706-1.46352,3.91081-.21073.53067-.53486.8801-1.14551.86887Z"/>
      <path class="cls-1" d="m33.95372.22635c1.5474-.07596,3.09413-.17414,4.64242-.21986.99112-.02927,1.9828.05057,2.97716.03916,1.84851-.02121,3.70068-.01947,5.54618.07412,1.90379.09655,3.80212.30681,5.7009.48761.2266.02158.4537.14834.65826.26527.33126.18935.56136.47312.49222.8784-.06628.38858-.35139.6014-.70838.73621-.65228.24633-1.31031.08785-1.95094-.00833-2.11626-.31774-4.2498-.27395-6.37603-.32597-2.39096-.05851-4.78801-.08883-7.1761.01441-2.72067.11762-5.44084.27983-8.15064.62203-2.25185.28437-4.5072.53597-6.74717.90623-2.87127.47461-5.72758,1.05335-8.51379,1.87565-3.05252.9009-6.10293,1.84744-8.96963,3.2738-.40895.20347-.80777.42785-1.22097.62198-.27016.12693-.55768.21741-.8647.20916-.54119-.01454-.92753-.25452-1.04695-.79773-.11004-.50056.14736-.83093.57822-1.05978,1.31971-.70096,2.70862-1.24355,4.096-1.78877,2.55807-1.00527,5.16151-1.89226,7.80715-2.62235,3.6447-1.00578,7.34016-1.79671,11.09938-2.28319,2.44775-.31676,4.89579-.62395,7.35019-.88181.25734-.02704.51721-.03008.77591-.04425.00043.00934.00087.01868.00131.02803Z"/>
      <path class="cls-1" d="m59.25481,34.56438c1.48989-.06114,2.77491-.51043,4.05018-1.05046,1.39504-.59075,2.75415-1.24625,4.08601-1.96344.10497-.05653.21639-.10208.32731-.14646.52837-.21141,1.18652-.01785,1.4219.41615.21411.39478.05092.98191-.41995,1.30934-.88403.61474-1.83444,1.12109-2.80437,1.58518-2.05318.98238-4.14028,1.90193-6.45746,1.99267-2.46124.09639-3.97466-1.25793-3.71161-3.85178.29831-2.94157,1.65092-5.50261,3.06728-8.0205,1.07079-1.90357,2.20955-3.76978,3.34926-5.63359.67409-1.10237,1.4103-2.16679,2.11536-3.25037.19399-.29814.44371-.38009.76766-.22944.01807.0084.03562.01804.05408.02545,1.40426.56375,1.48014.79527.62965,2.01947-2.02227,2.91088-3.83289,5.95271-5.47773,9.08634-.88489,1.68581-1.69992,3.42223-2.1855,5.28085-.15224.58272-.13015,1.18941-.01553,1.77556.14407.7368.79001.5878,1.20346.65503Z"/>
      <path class="cls-1" d="m70.90928,10.09892c.00274.60567-.41699,1.00151-.73426,1.44638-.0791.11091-.2202.18022-.2903.29463-.35562.58039-.73849.55616-1.25545.16556-.90611-.68462-.92713-.57308-.33802-1.5049.27601-.43658.61217-.83098,1.03653-1.13159.37091-.26274.77634-.26834,1.18356-.06988.33629.1639.40384.46273.39793.79981Z"/>
    </g>
  </g>
</svg>