<?xml version="1.0" encoding="UTF-8"?>
<svg id="Layer_2" data-name="Layer 2" xmlns="http://www.w3.org/2000/svg" viewBox="0 0 203.57301 124.62687">
  <g id="HAIRDRESSER">
    <g id="IoooU8">
      <g>
        <path d="m14.24951,119.2018c1.43516-.54579,2.87196-1.08733,4.30488-1.63896.86842-.33431.89308-.38465.57162-1.23783-1.05265-2.79388-2.11371-5.5846-3.1687-8.3776-.4083-1.08093-.39809-1.10107.71272-1.52601,1.06229-.40638,2.13024-.7982,3.18911-1.21323.73844-.28942.78755-.39238.50444-1.14718-1.00855-2.68893-2.0299-5.37308-3.0463-8.05907-.07044-.18616-.14443-.37111-.20941-.55917-.28347-.8203-.23459-.94342.59501-1.26705,1.13902-.44434,2.28802-.86306,3.42784-1.30541.80521-.31249.83113-.37041.52126-1.19337-1.03202-2.74088-2.07193-5.4788-3.10864-8.21791-.07045-.18614-.14648-.37057-.20784-.55971-.19878-.61275-.16461-.73567.43647-.9785,1.02797-.41529,2.07062-.79427,3.10706-1.1886.18603-.07079.37441-.13612.55732-.21422.66825-.28539.71694-.38141.45336-1.10518-.35998-.98848-.74122-1.96922-1.11313-2.95336-.07036-.18619-.14559-.3708-.20852-.55949-.24787-.74318-.20736-.84456.54317-1.13545,1.21955-.47268,2.44821-.92189,3.66675-1.39709.62662-.24437.6655-.32697.43785-.94842-.4401-1.2014-.90576-2.39342-1.3524-3.59247-.32913-.8836-.29592-.95913.60412-1.30805,1.11347-.43167,2.23584-.84042,3.34806-1.27519.74237-.29019.7886-.39318.51355-1.1433-.42091-1.14787-.87013-2.28538-1.29033-3.43351-.29544-.80723-.25071-.90274.53181-1.20583,1.19314-.46213,2.39467-.90262,3.5876-1.36529.71196-.27613.73885-.33947.4687-1.06964-.42424-1.14668-.85759-2.29009-1.29848-3.43047-.28795-.74478-.34478-.77911-1.04937-.51332-4.62917,1.74624-9.25622,3.4981-13.88122,5.25535-.70534.26799-.7268.33346-.45117,1.07742.43464,1.17315.88838,2.33922,1.32414,3.51197.31439.84612.28157.93751-.56265,1.25912-3.534,1.34632-7.07217,2.68171-10.60886,4.02098-1.06367.40278-2.12556.81035-3.19178,1.20626-.98677.36641-1.02649.34565-1.41317-.66719-.44623-1.16883-.89276-2.33761-1.32696-3.51093-.29296-.79167-.25416-.89252.54499-1.19961,2.12335-.81594,4.25304-1.61537,6.38035-2.421,2.34004-.8862,4.68027-1.7719,7.02029-2.65814.18612-.0705.37533-.13461.55623-.21683.56444-.25651.61916-.36431.39273-.99649-.32595-.91002-.67975-1.81003-1.02054-2.71475-.13029-.34589-.27581-.68746-.38183-1.04077-.1672-.55717-.10772-.66444.44699-.90667.23426-.10232.47682-.18578.71614-.2764,7.7915-2.95004,15.58313-5.89971,23.37454-8.84996q1.17248-.44396.72925-1.61856c-.41189-1.09063-.83349-2.17769-1.23352-3.27263-.24197-.66231-.18699-.77128.43293-1.04924.20726-.09293.42316-.16682.63588-.24737,9.51998-3.6045,19.03997-7.20897,28.56019-10.81282q1.39519-.52814,1.9331.88868c.37314.98368.74986,1.96603,1.11595,2.95234.3738,1.00707.33427,1.0829-.70256,1.48612-.2385.09275-.47844.18178-.71777.2724-7.63199,2.88949-15.26341,5.78053-22.89654,8.66699-1.3777.52097-1.23546.48766-.76105,1.7519.38961,1.03823.79413,2.07103,1.17147,3.11368.24227.66943.19886.7715-.4531,1.02828-1.16398.45846-2.33944.88765-3.50698,1.33717-.84911.32693-.87051.37476-.54546,1.24973.41589,1.11947.851,2.23183,1.26312,3.35266.31956.86907.26554.98547-.61,1.32578-1.13958.44294-2.28855.86174-3.4278,1.30552-.76083.29637-.78903.36422-.50443,1.1338.41422,1.12006.84737,2.23313,1.26414,3.35227.34824.93511.32834.975-.64274,1.34754-1.115.42776-2.23595.84009-3.3488,1.2733-.70938.27614-.74832.35763-.48558,1.07478.43036,1.17469.88969,2.33878,1.3205,3.51331.30451.83019.24814.95744-.56877,1.27696-1.13862.44534-2.28771.86385-3.42782,1.30545-.82056.31781-.84556.37388-.54553,1.18267.42524,1.14632.87037,2.28528,1.29301,3.43254.29386.79767.25761.87392-.55101,1.18755-1.1399.44212-2.28799.86314-3.42826,1.30434-.77323.29918-.80593.36345-.52694,1.12355.41148,1.12106.84675,2.23335,1.2629,3.35272.36676.98652.32568,1.08274-.62827,1.45198-1.03415.40029-2.07409.78555-3.11021,1.18077q-1.07853.4114-.65678,1.53276c.40119,1.06427.81269,2.12473,1.20392,3.19264.27944.76274.24327.84462-.50987,1.13872-1.11237.43439-2.23338.84664-3.34868,1.2736-.94738.36268-.95881.38374-.58929,1.3634,1.03361,2.74029,2.07438,5.47787,3.10872,8.21788q.43522,1.15291-.71413,1.59166c-1.08959.41462-2.18263.82027-3.26971,1.24133-.76274.29543-.78409.34013-.48738,1.12828,1.04186,2.76756,2.09249,5.53182,3.1385,8.29782q.47043,1.24398-.73708,1.704c-1.06312.40422-2.1304.79776-3.18932,1.21267-.6618.25929-.70484.34824-.46054,1.01844.42845,1.17537.88765,2.3395,1.32027,3.5134.32425.87985.27381.9987-.59372,1.33282-1.48579.57225-2.97834,1.12696-4.46806,1.68902-.68464-1.80836-1.36929-3.61671-2.05393-5.42507Z"/>
        <path d="m173.03404,5.76338c4.68031-1.77197,9.36062-3.54393,14.04093-5.3159.18615-.07048.37202-.14168.55853-.21118,1.04745-.39032,1.07977-.37889,1.48086.66615.40754,1.06186.80998,2.1257,1.20831,3.19106.40609,1.08615.40017,1.09538-.72092,1.52226-1.08951.41486-2.18247.8208-3.26984,1.24114-.77781.30067-.80126.34438-.51016,1.11804,1.05143,2.79438,2.11266,5.58507,3.16828,8.37788q.44627,1.18061-.74416,1.63449c-1.06309.40436-2.13023.7982-3.18951,1.21226-.67494.26383-.72774.35412-.48258,1.00831,1.08762,2.90227,2.18491,5.80096,3.29309,8.69543.24436.63827.37337.68672,1.03852.44424,1.14864-.41873,2.29276-.85081,3.42988-1.29993.63296-.24999.68283-.37398.44115-1.04014-.38786-1.0691-.80119-2.12896-1.20185-3.19345-.08008-.21276-.15704-.42703-.22581-.64366-.11145-.35095-.02198-.61331.34562-.74727.16022-.05838.31642-.12765.47592-.18806,2.81864-1.06768,5.63748-2.13487,8.45645-3.20169.15953-.06038.32195-.11323.48071-.17551.38488-.15099.65934-.06075.81182.34484.5303,1.41052,1.06548,2.81921,1.59795,4.22892.13459.35631.0261.60678-.3313.74639-.23831.0931-.47494.19064-.71418.28128-2.6324.99745-5.26519,1.9939-7.89781,2.99078-.18614.07049-.37491.13511-.55721.21451-.56629.24662-.60959.31326-.39548.9018.40828,1.12221.84109,2.23547,1.26253,3.3529q.45597,1.20895-.71516,1.65768c-2.73817,1.0393-5.47778,2.07484-8.21697,3.11143-.15953.06037-.31798.12578-.48146.17324-.58923.17105-.74447.11798-.98094-.47188-.44432-1.10831-.85424-2.23038-1.27995-3.34617-.08103-.21245-.16607-.42346-.2541-.63311-.13385-.31866-.36585-.413-.68858-.29288-.18651.06941-.37475.13424-.56087.20467-2.68604,1.0164-5.37185,2.0334-8.05769,3.05033-.10637.04027-.2138.07807-.31851.1223-.62383.26346-.66199.32755-.44371.94874.20733.59003.43901,1.17151.6601,1.7567.25123.665.51227,1.32648.75114,1.99589.24775.69422.19682.79091-.49678,1.08963-.15657.06743-.31795.12374-.47751.18416-4.38774,1.66133-8.77555,3.32253-13.16334,4.98374-.07978.0302-.15939.06089-.23948.09023-1.01136.37056-1.06161.35329-1.43325-.62474-1.01006-2.65803-2.01481-5.31807-3.02172-7.9773-.07049-.18614-.13801-.37351-.21261-.55799-.30184-.74646-.36504-.78602-1.13931-.49505-2.8214,1.06034-5.64028,2.12746-8.45643,3.20167-.79424.30297-.83695.39947-.53613,1.20027,1.0399,2.76832,2.09265,5.53183,3.13682,8.29856.44102,1.16854.4217,1.20641-.76219,1.65833-1.0626.40563-2.13001.7988-3.18948,1.21241-.76011.29674-.79183.36478-.50224,1.13466,1.06113,2.8211,2.13307,5.63814,3.19791,8.45786.39762,1.05292.38192,1.08868-.65276,1.48641-1.00855.38768-2.02166.76355-3.03067,1.15006-1.01483.38874-1.03262.42551-.66525,1.41067.35765.95911.72397,1.91502,1.08583,2.87257.07035.18617.14757.37051.20475.56076.18549.6172.14574.7282-.46026.96881-.97771.3882-1.9657.7505-2.94935,1.12377-.26585.10088-.53396.1962-.79705.30385-.67909.27784-.71019.33142-.46885,1.00407.24963.69577.52015,1.38405.78188,2.07547.80532,2.12747,1.61107,4.25475,2.41578,6.38245.08044.21271.15378.42808.23248.64146.13197.35777.02427.60725-.33305.74585-.42411.16449-.84748.33097-1.27257.49288-.79718.30364-1.59681.60081-2.39271.90775-.89912.34675-.91226.37491-.56446,1.30818.38727,1.03914.78505,2.07432,1.17529,3.11236.07994.21265.15406.42813.21777.6461.09474.32407-.02939.55677-.32986.6926-.23292.10529-.47019.20184-.70923.2925-2.57895.97802-5.15867,1.95403-7.73808,2.93082-.21273.08056-.42823.15491-.63669.24542-.62398.27084-.67944.37669-.43917,1.04371.33724.9362.69744,1.8642,1.05226,2.79401.70112,1.83728.62093,1.55124-1.00607,2.18771-1.00619.39362-2.01732.77527-3.03231,1.1456-.70326.25659-.81563.21293-1.0919-.48391-.45059-1.13647-.86693-2.28651-1.30795-3.42684-.33099-.85586-.40911-.89345-1.24644-.58434-1.09363.40374-2.17946.82866-3.27277,1.23332-.91455.3385-.99598.30584-1.3265-.56291-1.10214-2.89681-2.19667-5.79652-3.29384-8.6952-.04025-.10635-.0839-.212-.11542-.32101-.15396-.53232-.11755-.63708.38285-.85929.38928-.17288.79415-.31078,1.19285-.46224.82402-.31304,1.65083-.6189,2.47219-.93873.79969-.31138.82427-.36492.51763-1.19538-.37425-1.01358-.7631-2.0218-1.1451-3.03255-.07036-.18617-.14696-.37061-.2055-.56052-.19705-.63918-.14495-.78969.4885-1.04301,1.08229-.43284,2.17777-.83272,3.26735-1.24736q1.17377-.44668.72581-1.63447c-.40164-1.06411-.8143-2.12421-1.20239-3.19324-.24495-.67478-.20445-.7872.44039-1.03386,3.02761-1.15808,6.05928-2.30558,9.0941-3.44468.64423-.24181.77038-.1836,1.03076.46772.42213,1.05597.81218,2.12474,1.21695,3.18766.08092.21251.16715.42303.25087.63448.13899.35102.38615.48041.74501.34555,1.27747-.48009,2.55369-.96346,3.82932-1.44841.35378-.1345.47166-.38554.34394-.74598-.05697-.16076-.11077-.32272-.17111-.48221-1.0263-2.71269-2.05337-5.4251-3.08045-8.13749-.04027-.10637-.07778-.21409-.1243-.31772-.25319-.56404-.33743-.60602-.90328-.42583-.21648.06892-.4269.15705-.63963.23758-4.22829,1.60067-8.4565,3.20155-12.68475,4.80232-.21274.08054-.42455.16369-.63866.24046-.85767.30755-.91429.28733-1.24658-.57215-.44089-1.14041-.86185-2.28854-1.30435-3.42831-.2805-.72251-.36126-.76482-1.06503-.50712-1.17478.43016-2.34537.87245-3.50986,1.32966-.66179.25984-.69782.34918-.45126,1.02265.40077,1.09469.82341,2.18138,1.23367,3.27263.42084,1.11936.42074,1.12411-.66621,1.53676-2.7381,1.03951-5.47806,2.07409-8.21661,3.1124q-1.05844.40131-.66562,1.44828c.41096,1.09099.83044,2.17881,1.23569,3.2719.30486.82231.2748.92445-.49868,1.22026-2.94801,1.12743-5.89984,2.24494-8.85536,3.35254-.78955.29588-.92026.22424-1.24727-.63246-1.04444-2.73621-2.07741-5.47678-3.11454-8.21578-1.27878-3.37721-2.55731-6.75453-3.83592-10.13181-.07048-.18615-.14214-.37185-.21099-.55861-.388-1.05248-.37614-1.08273.66683-1.48083,1.11574-.42587,2.23573-.84072,3.34941-1.27188.76146-.29481.77953-.33879.48585-1.12914-.43579-1.17276-.88958-2.33883-1.32411-3.51204-.29779-.80402-.2606-.89733.52803-1.20751,1.05838-.4163,2.12656-.80761,3.18902-1.21359,1.06904-.40849,1.07887-.42814.69047-1.46591-.39829-1.06422-.81141-2.12293-1.20228-3.18984-.30812-.84103-.26639-.92479.58132-1.2509,1.22076-.46961,2.44337-.93477,3.67034-1.38786.74851-.27642.85685-.23326,1.14789.50981.48734,1.2443.96216,2.49387,1.41767,3.75013.25303.69786.19575.80332-.51149,1.07903-1.16564.45439-2.33994.88647-3.50815,1.33435-.88301.33854-.8942.35709-.56638,1.2267,1.04313,2.76712,2.09346,5.53154,3.13913,8.2977q.44791,1.1849-.73815,1.63721c-1.0365.39427-2.07619.78022-3.1103,1.18067-.78019.30213-.8206.36865-.53941,1.11765,1.06933,2.8484,2.14668,5.69381,3.2321,8.53612.27589.72246.38746.77656,1.0683.52893,1.14894-.41788,2.29282-.85064,3.43001-1.29953.63836-.25196.68805-.37249.44702-1.03754-.3875-1.06922-.80105-2.129-1.20173-3.19348-.08009-.21277-.1573-.42694-.22615-.64354-.11084-.34864-.02924-.61391.34002-.74992.21336-.07859.42264-.16822.63531-.24879,2.68565-1.01744,5.37165-2.03394,8.05728-3.05143.21267-.08057.42469-.16322.63436-.25126.27977-.11748.38435-.32741.29074-.61771-.08722-.27039-.18476-.53771-.28532-.80351-1.6502-4.36156-3.3025-8.72232-4.95213-13.0841-.47027-1.24342-.45957-1.26471.75503-1.72804.983-.37498,1.96858-.74316,2.95128-1.1189q1.03317-.39504.65942-1.39866c-.40953-1.09152-.83132-2.1785-1.23437-3.27239-.29728-.8068-.26334-.88227.53751-1.19369,1.08653-.42251,2.18029-.82637,3.26936-1.24239q.99856-.38144.61196-1.41997c-.39932-1.06497-.81107-2.12535-1.20449-3.19248-.33653-.91286-.28808-1.02132.64395-1.37753,2.17799-.83239,4.36017-1.65383,6.54076-2.47943,7.49911-2.83924,14.99812-5.67876,22.49757-8.51711q1.26287-.47797,1.74996.80481c.98732,2.60584,1.97346,5.2121,2.96031,7.81812.08056.21273.15311.42918.24612.63638.22681.50529.3266.56159.8486.38997.51278-.1686,1.01352-.37394,1.51892-.56482.69162-.26121,1.38611-.5153,2.07299-.78844.74863-.29768.77562-.36127.48739-1.14192-.36439-.98693-.74285-1.96865-1.11507-2.95269-.07042-.18617-.14504-.37094-.2092-.55925-.244-.716-.21305-.81315.48209-1.08561,1.16477-.45656,2.34034-.88549,3.50737-1.3364.80139-.30964.8261-.36532.51924-1.19446-.42436-1.14664-.87183-2.2848-1.29196-3.43296-.30032-.82073-.24157-.94619.58588-1.26923,1.13891-.44465,2.28796-.86328,3.42787-1.30543.80939-.31394.83225-.3705.52824-1.19048-.3756-1.0131-.76401-2.02147-1.14549-3.03241q-.46905-1.24302.73907-1.70311c4.81293-1.82322,9.6264-3.64499,14.43966-5.46735Zm-42.68507,51.7347c3.88256-1.46994,7.76526-2.93952,11.6476-4.41002q1.19542-.45279.7561-1.62047c-1.04561-2.76622-2.09806-5.52986-3.13679-8.29865-.31591-.84205-.2689-.92727.57598-1.25305,1.14082-.43987,2.28777-.86382,3.42909-1.30241.83945-.32258.85882-.35541.55371-1.1655-1.06235-2.82068-2.12952-5.63956-3.20173-8.45651-.30995-.8143-.37108-.84537-1.18594-.5375-6.25095,2.36172-12.50023,4.72784-18.74812,7.09763-.8536.32377-.88845.4081-.57815,1.24906.38388,1.04036.78538,2.07421,1.17454,3.11265.41791,1.11522.40904,1.13465-.6691,1.54574-1.11591.42548-2.23593.84022-3.34933,1.27215-.71997.27931-.7488.34216-.48236,1.06355.42361,1.14693.86587,2.28697,1.29462,3.43203.36695.98002.34465,1.02971-.66052,1.41638-1.06155.40837-2.1293.80066-3.18955,1.21231-.83754.32518-.87557.40751-.55674,1.25998.66738,1.78441,1.34639,3.56447,2.02119,5.3461.40287,1.06366.79554,2.13137,1.21462,3.18861.2431.61325.34064.64274.96347.43599.21573-.07161.4265-.1582.63925-.23874,3.82941-1.44971,7.65878-2.89955,11.48815-4.34936Zm39.52932-44.41433c-3.08453,1.1678-6.16961,2.33415-9.25327,3.50427-.98119.37232-.98959.39101-.63483,1.34275.37735,1.01238.76578,2.02064,1.14574,3.03207.45558,1.2128.44576,1.23303-.80041,1.70768-1.03625.39471-2.07641.77927-3.10983,1.18121-.78308.30457-.82312.37558-.54377,1.11601,1.72626,4.57562,3.45781,9.14925,5.19487,13.72079.27057.71206.36003.75456,1.07396.48667,2.84837-1.06881,5.69351-2.14626,8.53583-3.23108.75542-.28831.79976-.39241.52833-1.13633-.38004-1.04163-.78266-2.07502-1.17308-3.11289q-.45508-1.20971.71749-1.65659c2.33948-.8873,4.67987-1.77213,7.01977-2.65831.50521-.19133,1.01527-.37115,1.51342-.57942.55527-.23215.58868-.3236.40322-.91117-.06836-.21662-.1562-.42717-.23672-.63989-.98638-2.60598-1.97406-5.21146-2.95914-7.81794q-.47037-1.24457.74917-1.70862c1.11629-.4242,2.23707-.83698,3.34805-1.27462.57676-.22721.59902-.30552.40348-.89766-.0891-.26975-.19773-.53309-.29846-.79897-.36263-.95718-.71596-1.91806-1.09202-2.86995-.24261-.61404-.31929-.63636-.95842-.42025-.18842.06371-.373.13891-.55913.20938-3.00478,1.13753-6.00954,2.27515-9.01425,3.41285Zm-41.32089,63.07703c-1.43473.54319-2.87208,1.07961-4.30308,1.63244-.7062.27282-.74338.35612-.47954,1.07638.42016,1.14702.86677,2.2843,1.29063,3.42998.34342.92827.29705,1.03308-.61848,1.38794-1.16549.45174-2.34071.8786-3.50368,1.33665-.62432.2459-.67672.34907-.4499.95415,1.09689,2.92619,2.20394,5.84861,3.31807,8.76829.23915.62669.32696.66393.94819.4361,1.2002-.44014,2.39565-.8937,3.58722-1.35672.67806-.26348.70782-.32842.45854-1.00588-.44145-1.19974-.90694-2.39061-1.3518-3.58911-.31082-.83737-.27466-.91994.57718-1.25176,1.11179-.43306,2.23312-.84159,3.3452-1.27393.79723-.30996.83827-.39959.54572-1.19531-.39211-1.06653-.8049-2.12547-1.20265-3.18995-.39881-1.06731-.38611-1.09523.64429-1.4889,1.14115-.43598,2.28737-.85885,3.42567-1.3021.6796-.26462.71027-.32957.46213-1.00428-.43146-1.17315-.87555-2.34175-1.32687-3.50741-.27898-.72054-.34295-.75097-1.06177-.48374-1.43792.53459-2.8704,1.08383-4.30508,1.62715Z"/>
        <path d="m66.90731,93.61704c-7.36483,2.78832-14.72951,5.57706-22.09464,8.36459q-1.32277.50063-1.82817-.82668c-.39404-1.03638-.77731-2.07694-1.18227-3.10902-.2801-.71387-.36176-.75012-1.0735-.48816-1.14719.42222-2.28593.86737-3.43193,1.29287-.89179.33111-.9453.30525-1.2963-.60752-.43876-1.141-.87156-2.28434-1.29855-3.4298-.34216-.9179-.31917-.97327.56592-1.31505,1.11386-.43011,2.2345-.84265,3.34841-1.27264.81097-.31305.84152-.37005.53448-1.18713-1.00004-2.66125-2.01052-5.31858-3.01682-7.97748-.09057-.2393-.18735-.47657-.26851-.71905-.24806-.74107-.20647-.84188.54624-1.13362,1.19283-.46233,2.39402-.90307,3.58701-1.36502.72256-.27979.75177-.34268.48621-1.06156-.43344-1.17336-.88719-2.33922-1.3238-3.51144-.32864-.88237-.29679-.96286.60531-1.30698,2.65625-1.01327,5.31656-2.01588,7.97524-3.02276.21269-.08055.42717-.15683.63731-.2436.7152-.29529.75633-.3646.49687-1.07138-.40166-1.09416-.82288-2.18112-1.23362-3.27197-.08008-.21267-.15568-.42736-.22352-.64419-.09098-.29081.01534-.50073.28959-.62066.23425-.10243.47218-.19701.71133-.28757,7.8963-2.99042,15.7928-5.98028,23.68965-8.96923q1.21312-.45917,1.68437.77968c1.02774,2.71159,2.05384,5.42378,3.08046,8.1358.06039.15953.12538.31764.17801.47972.20092.61884.16858.73844-.42769.98247-.89429.36602-1.80428.69367-2.70765,1.03751-.29227.11125-.58688.21669-.87659.33425-.77376.31396-.80697.3942-.51595,1.21221.07623.21425.15982.42587.24035.63857.96626,2.55247,1.93455,5.10416,2.89799,7.6577.43092,1.14215.40718,1.19405-.70153,1.61879-1.06191.40683-2.1288.80072-3.18925,1.21129-.83275.3224-.85936.37673-.56385,1.17415.41491,1.11961.83528,2.23736,1.27017,3.34931.25749.65835.35051.70661,1.02037.45547,2.87496-1.07788,5.74639-2.16524,8.61459-3.26099.69718-.26635.75057-.39096.49861-1.08197-.41873-1.14843-.86773-2.2858-1.29017-3.43292-.31877-.86564-.28245-.94733.54592-1.26697,1.22005-.47076,2.44304-.9342,3.66928-1.38861.76875-.28488.88697-.24949,1.16373.47341,1.13843,2.97362,2.26545,5.95163,3.38202,8.93352.27218.72687.19343.85842-.52381,1.16262-.2354.09984-.47714.18481-.71643.2754-7.3116,2.76833-14.62327,5.5365-21.93494,8.30465Zm-7.12583-26.99209c-3.16266,1.19738-6.32654,2.39154-9.48709,3.59445-.76794.29228-.79833.3618-.51692,1.12722.42165,1.14686.86844,2.28447,1.29121,3.43094.3255.8827.27382,1.00222-.58361,1.33691-1.05886.4133-2.12562.80633-3.18767,1.21149q-1.07446.40989-.68429,1.45303c.39002,1.03741.7881,2.0718,1.17522,3.11027.35859.96193.34182.99184-.6079,1.36323-.15879.06209-.31873.12123-.47818.18164-.95668.36247-1.91605.71805-2.8692,1.08955-.74884.29187-.77045.35759-.49662,1.13849.03761.10724.07944.213.11968.31931.98604,2.60457,1.97119,5.20947,2.95864,7.8135q.45112,1.18966,1.6405.7425c6.0599-2.2932,12.11927-4.58781,18.17877-6.88209.15945-.06038.32114-.11596.47686-.18488.58839-.26045.62363-.34346.41045-.97699-.07246-.21534-.15848-.42612-.23896-.63875-1.02602-2.71097-2.05595-5.42046-3.07591-8.1337-.29883-.79494-.25598-.89157.53699-1.20257,1.11108-.43576,2.23287-.84412,3.34605-1.27462.85535-.33078.89316-.40915.58427-1.24566-.41343-1.11963-.85036-2.23059-1.2612-3.35114-.30666-.83643-.26347-.92033.58661-1.2477,1.19336-.45957,2.39407-.9001,3.58545-1.36468.63157-.24628.6672-.32595.44616-.9444-.27732-.77592-.57837-1.54337-.8709-2.31382-.19165-.50474-.38733-1.00798-.57931-1.51259-.12248-.32191-.33782-.43924-.66961-.31521-.21292.07959-.42764.15438-.64023.23483-3.02995,1.14661-6.05967,2.29383-9.08924,3.44143Z"/>
        <path d="m97.87446,34.22192c.63693-.24114,1.26937-.49508,1.91205-.71978.62931-.22004.74519-.18125.97756.4098.51908,1.32035,1.02156,2.64755,1.50706,3.98062.21733.59674.15919.71077-.46132.95365-1.29472.50678-2.5952.99962-3.9011,1.47682-.64263.23484-.74937.18108-1.01038-.48731-.49544-1.26872-.97815-2.54263-1.44672-3.82151-.25305-.69069-.20138-.78224.51252-1.06782.63222-.25291,1.27288-.48474,1.90981-.72588l.00053.00141Z"/>
      </g>
    </g>
  </g>
</svg>