<?xml version="1.0" encoding="UTF-8"?>
<svg id="Layer_2" data-name="Layer 2" xmlns="http://www.w3.org/2000/svg" viewBox="0 0 216.18511 118.87912">
  <g id="CYCLING_APPAREL" data-name="CYCLING APPAREL">
    <g id="kFXSY7">
      <g>
        <path d="m139.93213,25.41476c4.08006-1.24635,8.16007-2.4929,12.24031-3.73865.33999-.10379.6773-.22148,1.0234-.29904.83139-.18631,1.02487-.11911,1.28448.70774.98504,3.13739,1.94481,6.28289,2.88642,9.43361.26698.89338.14596,1.06182-.7028,1.41471q-1.70028.70695-1.17297,2.44219c.27119.89295.56542,1.77982.80434,2.68135.21927.82748.11663.9845-.66587,1.32459q-1.74832.75987-1.20868,2.53218c.53105,1.7429,1.07811,3.48113,1.58865,5.23001.30523,1.04556.20998,1.19239-.80864,1.57852-.24906.09443-.50453.17242-.75856.2532-.57428.18263-.72614.54701-.58968,1.13263.13605.58389.61242,1.17418.23151,1.77787-.32888.52125-.99533.53955-1.53303.7234-.63122.21582-.82115.59593-.62119,1.22902.37472,1.1864.74504,2.37502,1.07645,3.57399.24507.88664.13584,1.04847-.72736,1.40261q-1.68482.69126-1.14866,2.45453c.25853.85034.53589,1.69557.76982,2.55263.25506.93449.16728,1.08448-.65465,1.44341-.5165.22556-1.22223.17528-1.49933.7504-.27009.56052.12838,1.1178.27558,1.66235.17667.65351-.06665,1.02202-.66628,1.2251-.04205.01424-.08379.02966-.12491.04639q-1.67827.68346-1.13807,2.45972c.25855.85034.53623,1.6955.7695,2.55272.25264.92845.16274,1.07821-.66495,1.43803-.51635.22447-1.22147.17493-1.49538.75482-.2661.5634.13765,1.11767.28241,1.66321.17471.65842-.09835.97974-.67386,1.22728-1.65758.71295-1.67486.73183-1.29044,2.37407.14769.63096.00828,1.00955-.59837,1.26661-.55721.2361-1.31791.17433-1.61849.80036-.2682.5587.14012,1.11705.28484,1.66298.17538.66155-.10706.97819-.68019,1.22375-1.65052.70719-1.66819.72574-1.2837,2.37749.14761.63401.01199,1.03827-.60881,1.25456-.08386.02926-.16478.06926-.25045.09084-1.8616.46807-1.53451.92738-1.16543,2.13379.31225,1.02064.20146,1.19049-.85278,1.54626-1.05226.35514-2.12684.6438-3.18164.99185-1.06966.35293-1.11505.46065-.83865,1.5363.05526.21512.11392.43016.18652.63985.21613.62423.00918,1.04875-.61186,1.24353-1.35646.42542-2.71672.83918-4.07918,1.24505-.62534.18629-1.00665-.08436-1.2416-.67452-.20819-.52296-.18486-1.21309-.75852-1.49828-.56332-.28004-1.11652.12898-1.67196.2371-.55708.10842-.92072-.04113-1.18458-.57412-.90526-1.82854-.2036-2.97232,1.85869-3.00014.35658-.00479.59827.12765.73188.45177.08454.20505.15823.41475.23152.62423q.51758,1.47928,2.07063,1.01195c.89328-.27005,1.7813-.55792,2.67743-.81802.61386-.17815.85201-.50476.71972-1.1786-.39057-1.98949-.36917-1.99375,1.55428-2.58269.72237-.22117,1.44792-.43246,2.16652-.6653,1.16742-.37827,1.21138-.46283.93221-1.59649-.01062-.04312-.0259-.08506-.03679-.12812-.36287-1.43446-.35433-1.45086.99464-1.91695,1.27133-.43927,1.28056-.45523.97185-1.68436q-.37826-1.50598,1.04289-1.99923c1.20132-.41698,1.21305-.43992.88652-1.73012-.36186-1.42971-.35379-1.44515,1.00097-1.91366,1.28718-.44515,1.31255-.48396.92396-1.81647-.28614-.98116-.61273-1.95085-.88412-2.93591-.31534-1.14452-.23609-1.26828.86657-1.65703.20946-.07384.42089-.14355.63465-.20354.57152-.16039.78258-.50381.64387-1.10016-.13826-.59452-.55972-1.20008-.25617-1.80141.31033-.61473,1.06669-.5539,1.62925-.77727.49399-.19614.71873-.49058.58199-1.01988-.03334-.12903-.06748-.25789-.09874-.38742q-.38755-1.60575,1.14854-2.15883c1.02482-.369,1.08684-.46815.77504-1.57096-.30222-1.06886-.66321-2.12139-.95488-3.19293-.28697-1.05432-.19018-1.1974.83183-1.5657.08355-.03012.17004-.05201.25399-.08104,1.27272-.44012,1.29689-.4804.90464-1.8267-.23617-.81057-.49187-1.61544-.73665-2.42354-.07726-.25511-.16513-.50881-.21774-.76929-.17051-.84385-.08575-.99172.70379-1.30771q1.73031-.69253,1.20664-2.42158c-.27029-.89319-.56937-1.77914-.79962-2.68257-.2284-.89613-.13533-1.14008.75719-1.37071,1.96291-.50722,1.57337-.93385,1.15121-2.35679-.27804-.93722-.59464-1.86453-.83174-2.81186-.2066-.82551-.11032-1.07678.71434-1.27909,2.09529-.51403,1.60369-1.02093,1.18713-2.44655-.2617-.89571-.56842-1.7795-.79749-2.68318-.22585-.89103-.13119-1.12649.77004-1.36441,1.91113-.5045,1.58796-.87305,1.13717-2.36271-.50198-1.65883-.99806-3.31971-1.52524-4.97058-.3565-1.11633-.53747-1.22762-1.63317-.89522-6.5489,1.98682-13.09401,3.98621-19.63548,5.99735-1.12526.34595-1.14891.44906-.83218,1.64661.04545.1718.10818.33948.14602.51274.17956.82235.11188,1.01089-.70515,1.29974-1.0466.36997-2.12104.66046-3.17915.99878-1.3261.42398-1.34492.46694-.99624,1.77833.36972,1.39063.36174,1.40551-1.02174,1.90269q-1.27135.45689-.90723,1.8268c.34342,1.29199.3114,1.35135-.98065,1.81661q-1.32554.47732-.94846,1.91291c.31754,1.20888.27397,1.28977-.93964,1.72987-.12526.04543-.25572.07675-.38007.12432-.93708.35858-.99675.47211-.71929,1.49267.13985.51437.30697,1.02134.46281,1.53134.71424,2.33748,1.4179,4.67826,2.14816,7.01073.33805,1.07974.42098,1.10464,1.52749.81432.21485-.05637.42417-.13597.64079-.18294.83744-.18153.9691-.10669,1.29292.70458q.69584,1.74322,2.51534,1.18899c.85027-.25878,1.69505-.53835,2.55331-.76737.93891-.25056,1.06868-.16831,1.40722.69171q.67853,1.72367,2.40245,1.19907c.80765-.24617,1.6112-.50637,2.42228-.74062.60866-.17578.86197-.49283.73021-1.17253-.3876-1.99964-.36602-2.00468,1.54394-2.5885,1.78492-.5456,3.56609-1.1041,5.35727-1.6284,1.13129-.33116,1.26361-.24148,1.64438.86299.61072,1.77147.55582,1.88279-1.22258,2.43658-.93343.29065-1.87699.55162-2.80013.87169-.83128.28822-.9818.47406-.68492,1.27337.70333,1.89366.18687,1.93074-1.46612,2.4356-1.74254.53221-3.48167,1.07612-5.22918,1.59153-1.35684.4002-1.48602.32296-1.96603-.96406-.47776-1.28098-.52576-1.31168-1.83597-.9324-.98173.28418-1.9507.61384-2.93694.88047-1.04214.28177-1.23284.16936-1.6147-.80055-.08126-.20646-.14749-.41937-.21085-.63223-.18327-.61577-.55998-.88267-1.20464-.68403-.12732.03923-.25624.074-.38578.10523-1.41202.34056-1.46126.31504-1.95038-.99999-.45825-1.23199-.48066-1.24428-1.72235-.94539-1.39109.33484-1.53173.2832-1.9373-1.01678-.89997-2.88468-1.78223-5.77506-2.64875-8.66998-.38821-1.297-.31162-1.40549.93411-1.83761,1.38281-.47967,1.39469-.49445.98401-1.89231-.2881-.98062-.61433-1.9505-.88247-2.93636-.29165-1.07226-.20134-1.21682.80509-1.58012.25065-.09047.50511-.17147.76092-.24621.59756-.17455.74036-.57411.57422-1.13331-.02532-.08517-.049-.17094-.06971-.25733q-.38933-1.62466,1.13026-2.16838c1.03648-.3709,1.07427-.44435.79837-1.56081-.0213-.08621-.05188-.17011-.07339-.25629-.31842-1.27563-.26997-1.36844,1.03832-1.78454.97398-.30978,1.95828-.58731,2.93014-.9034,1.08711-.35358,1.13288-.45117.87645-1.51717-.02077-.08632-.05166-.17016-.07339-.25629-.34112-1.35144-.30394-1.43551,1.09058-1.86405,4.20543-1.2923,8.41436-2.57311,12.62178-3.85891Z"/>
        <path d="m54.98633,33.32718c-7.2233,2.20652-14.44667,4.41284-21.66973,6.62012-.38231.11684-.76179.24292-1.14316.36284-.56651.17814-.74615.52946-.60859,1.12278.13568.58523.6239,1.18757.23848,1.77707-.38916.59521-1.15574.60976-1.78116.80354-3.47988,1.07819-6.96812,2.12937-10.44937,3.20321-1.38349.42677-1.38207.44891-1.00352,1.88043.33261,1.25774.27755,1.38418-1.01711,1.79357-1.8638.58934-3.74031,1.13841-5.60537,1.72388-1.29923.40784-1.31274.45624-.95623,1.79787.35883,1.35033.31833,1.43368-1.06378,1.87818-1.05727.34002-2.12049.66174-3.18319.98462-.62888.19108-.79752.56313-.64908,1.2157.43385,1.90738.41158,1.9134-1.49847,2.4992-.8495.26052-1.69483.53699-2.55196.76973-1.14503.31093-1.34773.18434-1.7426-.97289-.54382-1.59379-.45565-1.77225,1.13431-2.26772,1.01795-.31722,2.0358-.63494,3.05668-.94253.58111-.1751.72247-.53421.61418-1.11916-.37301-2.01509-.35769-2.01734,1.66048-2.63557.80709-.24724,1.60982-.50946,2.42098-.74244.64683-.18578.7925-.56965.6578-1.2108-.40557-1.93044-.38665-1.93481,1.48813-2.5091,1.74167-.53351,3.48854-1.05074,5.22351-1.60519.9796-.31303,1.02471-.44077.78516-1.45553q-.40382-1.71056,1.23535-2.21864c3.56809-1.09378,7.13887-2.17879,10.70661-3.27367,1.50271-.46115,1.5005-.46835,1.13759-1.91802-.33087-1.32163-.29392-1.40211,1.13609-1.8395,11.13113-3.40475,22.264-6.80379,33.39634-10.20457,3.69662-1.12927,7.3932-2.25866,11.09005-3.38716.33988-.10376.67722-.22154,1.02343-.29782.82582-.18197.95819-.09929,1.28128.72535.75406,1.9246.67384,2.09796-1.3111,2.70491-7.35012,2.24759-14.70129,4.49176-22.05203,6.73732Z"/>
        <path d="m13.71574,114.74299c-.31157-1.01996-.64328-2.0343-.92935-3.06138-.32005-1.14907-.23651-1.28448.84609-1.66779.20934-.07413.42042-.14555.63484-.20268.66295-.17667.81625-.60303.62574-1.21999-.28844-.93404-.56896-1.87057-.8486-2.8073-.10163-.34043-.20025-.68229-.28404-1.02742-.1394-.57415.08113-.94659.65171-1.10942.08537-.02436.16712-.06228.25313-.08337,1.72039-.42175,1.53649-.75855,1.11109-2.14945-.28592-.93485-.59303-1.86429-.84291-2.80878-.26398-.99779-.16744-1.14452.76499-1.49141.1248-.04641.25481-.07864.3807-.12232,1.19826-.41582,1.24041-.48412.88041-1.73108-.29578-1.02453-.639-2.03575-.91901-3.06436-.28939-1.06305-.19555-1.20765.81767-1.57321.16706-.06029.341-.10165.50768-.16284.94963-.34874,1.02151-.46149.73806-1.48075-.28567-1.02721-.62904-2.03826-.92068-3.06393-.36816-1.2948-.31155-1.38333.96165-1.82449q1.32239-.4582.96265-1.90524c-.30862-1.24146-.26528-1.32313.92505-1.73758.08389-.02922.17033-.05113.2541-.08067,1.10918-.39117,1.15697-.47041.81968-1.65544-.2554-.89738-.5435-1.78541-.81063-2.67951-.0889-.29756-.17299-.59809-.23235-.90253-.08618-.44207.0374-.79138.49897-.9559.12554-.04473.2477-.10288.37646-.13401,1.43496-.34705,1.69633-.51178,1.18599-2.12615-.33024-1.04468-.19759-1.19189.82822-1.55876.20907-.07477.42063-.14512.63526-.20136.64012-.16778.87417-.55636.66981-1.19486-.02707-.08457-.04991-.17068-.07086-.25701q-.38642-1.59283,1.16119-2.15185c.984-.35544,1.03939-.4532.80378-1.44878-.04088-.17276-.10453-.34017-.14508-.513-.25028-1.06653-.1818-1.19312.84755-1.56038.25099-.08957.50581-.16876.76044-.24765.51627-.15995.68084-.49413.57428-1.02255-.12883-.63885-.62111-1.30022-.23028-1.92223.34326-.54629,1.10055-.50991,1.67142-.73682.52494-.20866.60219-.57258.4923-1.07114-.13136-.59593-.5632-1.20376-.24284-1.79994.32145-.5982,1.07509-.54388,1.63984-.76697.50312-.19871.69753-.51168.55974-1.03181-.04551-.17175-.09353-.34289-.13709-.51513q-.37173-1.47036,1.08218-1.97782c1.14805-.40072,1.17681-.45245.88361-1.623-.05396-.21543-.11644-.42871-.17441-.64314-.16779-.62066.0471-.9832.66608-1.2252,1.62403-.63491,1.61512-.65772,1.29604-2.37469-.15658-.84258-.07958-.98176.72278-1.29785.08254-.03251.1693-.0541.25313-.08356q1.41952-.49872,1.059-1.96192c-.29928-1.21458-.2353-1.33038.9571-1.7208.16889-.05529.33879-.10819.51026-.15473,1.14297-.31036,1.2724-.243,1.65192.85378.02905.08394.05322.16958.07982.25438.47716,1.52193.44999,1.57767-1.03027,2.11264-1.19469.43177-1.20309.44884-.85808,1.74492.36812,1.38295.35928,1.39923-1.02954,1.89844q-1.2651.45473-.89953,1.83078c.33462,1.25951.29259,1.34597-.8612,1.77173q-1.44185.53205-1.06801,1.95753c.31588,1.20445.27239,1.2848-.94678,1.72589-.16707.06043-.33615.11628-.50679.16562-.62087.17951-.82461.5353-.67439,1.20058.39085,1.73102.37444,1.75809-1.34393,2.47509-.6328.26401-.81549.65749-.56935,1.24972.61061,1.4692.53541,1.87137-1.18378,2.37456-.95412.27927-1.00106.45756-.70856,1.48531.30405,1.06832.65777,2.12253.9609,3.19108.30154,1.06294.21749,1.20807-.78342,1.59275-.16566.06368-.34004.10455-.50638.1667-.98525.36803-1.0338.45844-.78393,1.4588.04303.17232.10586.33967.14882.51199.2499,1.00234.18441,1.13522-.7466,1.50442-.16491.0654-.33917.10681-.50597.1679-1.07183.39261-1.10679.4576-.82597,1.54507.05553.21502.11434.42993.18648.63979.21535.62648-.01643,1.00043-.61384,1.25179-.55627.23406-1.32211.16987-1.60712.81107-.24882.55967.15319,1.11749.29769,1.66493.17785.67378-.14199.97099-.70455,1.20997-1.7639.74934-1.75893.76006-1.1839,2.6479.24601.80765.51162,1.61015.72944,2.42537.24053.90017.1428,1.06161-.70783,1.41329-.08195.03388-.16878.05571-.2522.08628q-1.41553.51874-1.0365,1.97398c.30249,1.16143.25497,1.25688-.85165,1.66789-.20811.07729-.42032.14474-.6334.20727-.63565.18658-.83616.57902-.63398,1.21713.36235,1.14364.71547,2.29076,1.04214,3.445.29678,1.04862.20908,1.19268-.80857,1.57938-.20746.07883-.42637.12813-.63217.21061-.80168.32123-.89524.46006-.66299,1.30013.31962,1.15606.70761,2.29318,1.03068,3.44835.27185.97203.17761,1.11653-.76875,1.49123q-1.63208.6462-1.11006,2.36638c.27095.89297.56436,1.77991.80604,2.68073.23825.88803.13494,1.04743-.72987,1.40147-.04106.0168-.08435.02807-.12585.04389q-1.56696.59781-1.09789,2.15641c.55419,1.82867,1.12779,3.65156,1.66677,5.48467.3278,1.11489.22884,1.2705-.87179,1.6536-.25146.08752-.50742.16802-.76721.22464-.88793.19348-1.12414.10218-1.41814-.74272-.3794-1.09033-.68523-2.20622-1.02274-3.31112-.00326.001-.00652.00198-.00979.00297Z"/>
        <path d="m188.97293,4.67128c-1.44489.44138-2.8952.86594-4.33287,1.32968-1.07161.34566-1.1143.4594-.83873,1.53557.03305.12904.07909.25477.11223.38378.28465,1.10841.21965,1.26033-.91483,1.63097-1.3514.44151-2.71721.83888-4.07682,1.25526-.50986.15614-1.0212.30752-1.52946.46866q-1.44858.45928-1.05638,1.96197c.31097,1.19169.25453,1.31373-.96451,1.71437-1.05515.34678-2.12952.63584-3.18118.99234-.91235.30929-.96028.43996-.73816,1.37035.03092.12947.07725.25521.11143.38401.33055,1.24557.28901,1.32921-.88503,1.75811-.25028.09145-.50581.16854-.75582.26065-.44345.16334-.62143.47415-.50475.94044.02158.08621.04689.17155.06635.2582q.38844,1.73087-1.20033,2.34873c-.90446.35174-.95326.44289-.72812,1.3802.03108.12945.07731.25521.11148.38401.32938,1.24062.287,1.32517-.89062,1.75515-.25029.0914-.50584.16856-.75562.26127-.44482.16511-.61727.48135-.49745.94413.06679.25798.14007.51449.21782.7694.80377,2.63514,1.60466,5.27119,2.41561,7.90412.43733,1.4199.44542,1.4174,1.83816,1.04295,1.37271-.36904,1.38178-.36393,1.86781,1.05403.43281,1.26261.45954,1.29182,1.68628.92253,2.76568-.83258,5.52814-1.67606,8.28677-2.53172,1.20668-.37429,1.23213-.45085.91256-1.71341-.04361-.17225-.10619-.3405-.13875-.51457-.15528-.83046-.08212-1.01019.74044-1.28168,1.39218-.45949,2.80034-.87066,4.20285-1.29861.84996-.25935,1.70382-.50598,2.5524-.76968.62903-.19547,1.01598.00781,1.22235.64027.72904,2.23425.73274,2.19392-1.30885,2.81369-1.74329.52921-3.48947,1.04977-5.22475,1.6042-1.07285.34277-1.11504.45958-.83981,1.53483.03302.12906.0791.25477.11225.38379.28497,1.10937.21541,1.24534-.91298,1.63424-.54582.18813-1.1029.34375-1.65536.51249-2.33733.71397-4.67199,1.43692-7.01336,2.1374-1.43588.42958-1.54446.36306-2.05345-1.00289-.44592-1.19671-.46823-1.20821-1.74637-.89948-1.36281.32917-1.41249.30179-1.91954-1.05833-.44151-1.18429-.46782-1.19763-1.75289-.88773-1.35278.32622-1.48867.26981-1.90684-1.07397-.89778-2.8851-1.78244-5.77446-2.64633-8.66989-.37971-1.27262-.30844-1.3581.98981-1.80707q1.30904-.45269.96964-1.79347c-.35235-1.392-.34239-1.41001,1.04466-1.89006,1.23907-.42883,1.24412-.43771.92177-1.71078-.05451-.21528-.11694-.42861-.16889-.64448-.13618-.56583.06051-.91756.62356-1.13272.56319-.21524,1.33259-.14967,1.6143-.79219.24239-.5528-.15909-1.11718-.28278-1.67326-.14031-.63076.06549-.98219.6815-1.22141,1.61227-.62609,1.60343-.64878,1.28713-2.37979-.1524-.83405-.08046-1.01075.73594-1.28623,1.13637-.38345,2.29602-.69757,3.43523-1.07313.97511-.32146,1.02128-.43994.77907-1.45929-.02053-.08636-.05154-.17018-.07334-.25629-.34878-1.3788-.31672-1.45051,1.06094-1.87996,1.78169-.55539,3.57011-1.08928,5.35323-1.64017,1.4921-.46097,1.49076-.46592,1.12592-1.92455-.03232-.12928-.07823-.25576-.10228-.38641-.1526-.82958-.08402-1.01999.74464-1.27924,3.13813-.98176,6.28269-1.94363,9.43419-2.88158.90859-.27042,1.04945-.15535,1.38774.72551.73716,1.9195.66542,2.06373-1.35248,2.68435-1.2317.37882-2.46469.75339-3.6971,1.12986l.00077.00251Z"/>
        <path d="m77.70251,87.73814c-1.91182.58401-3.81891,1.18417-5.73717,1.74623-1.23742.36258-1.44785.25-1.83962-.98528-.63115-1.99004-1.24177-3.98701-1.82962-5.99028-.35609-1.2135-.27244-1.33124.90713-1.74214.16773-.05844.34217-.09889.50713-.16385.79067-.3114.89056-.44743.64582-1.30818-.46158-1.62342-.97434-3.23228-1.46411-4.84772-.15465-.51007-.33209-1.01547-.44913-1.53425-.19192-.85064-.09666-1.00488.67837-1.31811q1.62167-.65543,1.2794-2.28098c-.19524-.92726-.14061-1.15852.73747-1.38629,2.01228-.52198,1.59592-.92877,1.14222-2.46745-.25126-.85214-.53955-1.69428-.76339-2.55336-.25917-.99463-.165-1.13786.77419-1.4862.1248-.04629.25478-.07846.38063-.12216,1.19426-.41475,1.23439-.48038.87196-1.7351-.30817-1.06683-.66824-2.11941-.95124-3.19256-.23822-.9033-.12968-1.10577.73402-1.39191,1.26468-.41897,2.53989-.81023,3.82367-1.16615.89225-.24738,1.03286-.14038,1.36962.75761.06231.16614.10995.33789.16159.5079.43512,1.43251.40839,1.48406-1.03238,2.00346-1.21566.43823-1.25065.49268-.89132,1.72563.31071,1.06613.66424,2.12017.95812,3.19074.24456.89092.13831,1.05442-.71853,1.40632-.08201.03368-.16877.05559-.25218.08611q-1.40589.51389-1.02514,1.97924c.29965,1.15327.25066,1.25016-.86145,1.66216-.20812.07709-.42022.14452-.63317.20732-.63922.18852-.8261.58776-.62514,1.22151.3625,1.1432.71581,2.28987,1.04201,3.44383.29535,1.04475.20692,1.18809-.81504,1.57543-.20746.07864-.42633.12788-.63198.2105-.79599.31977-.88998.4617-.65715,1.30278.31991,1.1556.70761,2.29236,1.03041,3.44722.2709.96917.17576,1.11428-.77204,1.48897q-1.62999.64433-1.10697,2.3669c.20664.68006.40951,1.36133.62433,2.03882.42228,1.33175.46471,1.36291,1.76715.97163,2.21229-.66459,4.41959-1.34582,6.62848-2.0217.67962-.20794,1.35586-.42708,2.03688-.63025.58469-.17442.71581-.54122.60702-1.12278-.37549-2.00729-.36047-2.00956,1.53972-2.59233.84938-.2605,1.69461-.53527,2.54808-.78148.64963-.18741.86938-.5982.63596-1.2098-.76116-1.99442-.29664-1.967,1.63837-2.54009.6288-.18623,1.03701-.00397,1.22078.63865.0488.17068.1114.33739.16554.50659.50508,1.57866.48608,1.61694-1.08149,2.19179-1.10763.40618-1.12819.44856-.80652,1.66386.38685,1.46153.36354,1.51378-1.08246,1.97573-.97319.3109-1.95928.5824-2.92772.90698-.99272.33271-1.10722.47678-.78512,1.44323.49405,1.48237.47354,1.72304-1.234,2.23404-1.82996.54765-3.65439,1.11376-5.48123,1.67181l-.00079-.00258Z"/>
        <path d="m210.15355,28.88507c-1.06195.3244-2.12306.65167-3.18621.97211-.6302.18996-.79514.56513-.64681,1.2163.43405,1.90562.4121,1.91224-1.4996,2.49783-1.74124.53338-3.47925,1.07796-5.22696,1.58932-1.27311.37251-1.41848.28233-1.87298-.93187q-.48964-1.30807-1.92525-.97159c-1.14723.26891-1.3369.19594-1.69085-.86211-.39439-1.17896-.76068-2.36914-1.08568-3.56893-.26202-.96736-.15153-1.11456.80973-1.46498.20848-.07599.42687-.12529.63385-.20476.80754-.31007.90883-.45305.68587-1.28676-.27526-1.02925-.61722-2.04048-.9164-3.06358-.42903-1.46717-.3928-1.53073,1.00698-2.01536.12587-.04357.25188-.0885.38065-.12181.6539-.16921.83986-.58088.64712-1.20771-.31331-1.01891-.62362-2.03878-.92475-3.06132-.4577-1.55429-.44402-1.57508,1.05329-2.09913,1.14242-.39984,1.19369-.4756.86702-1.62884-.27837-.98275-.60336-1.95225-.88444-2.93426-.37366-1.30546-.30873-1.41951.92002-1.84522.16782-.05814.33611-.11694.50773-.16177.65508-.17115.83636-.58476.64357-1.20984-.27487-.89129-.53995-1.78563-.81001-2.67841q-.60607-2.00349,1.45462-2.63457c.97697-.29842,1.95772-.5845,2.93361-.8864.6251-.19339,1.03764-.00902,1.22249.63454.04902.17061.11151.33729.16569.50646.50604,1.57981.48658,1.61914-1.07824,2.19315-1.09772.40268-1.14707.48773-.80604,1.66259.30952,1.06635.66244,2.12032.95896,3.19009.2542.91713.15799,1.07629-.67683,1.42911q-1.61145.68102-1.24678,2.29842c.19996.88684.12182,1.02834-.76509,1.38632q-1.66387.67159-1.15799,2.34057c.27064.89262.56232,1.77951.80729,2.6791.24962.91662.15624,1.07519-.6797,1.42796q-1.71777.72492-1.16056,2.55476c.2586.84985.53858,1.69412.76614,2.55223.22362.84334.12754,1.00052-.63694,1.33822-.04052.01791-.08381.02943-.12497.04604q-1.66054.66999-1.15299,2.34271c.25851.84987.53521,1.69446.77913,2.54845.18639.65253.56926.82763,1.20504.62913,2.07747-.64858,4.15987-1.28147,6.24262-1.91304.5646-.17119.81154-.50685.64068-1.09733-.01234-.04261-.02264-.08592-.03146-.1294q-.3858-1.89942,1.40884-2.45094c.89158-.27404,1.77977-.55981,2.67567-.81887.62553-.1809.831-.52847.69825-1.18971-.39542-1.96968-.37531-1.97446,1.57344-2.57.89202-.27259,1.77901-.56436,2.67932-.80636.9707-.26089,1.10678-.16801,1.45877.79984.01516.04172.02704.08463.04135.12667.58729,1.72209.577,1.74401-1.11899,2.38533-.96817.3661-1.01901.46182-.7657,1.46867.0433.17217.10617.33943.14873.51175.24489.99135.18395,1.1613-.76648,1.48853-1.04926.36127-2.12103.65721-3.18298.98161l.00522.01709Z"/>
        <path d="m51.74703,92.23299c1.78417-.54502,3.56653-1.09603,5.35306-1.63322,1.56936-.47189,1.64314-.42522,2.11751,1.18557.06272.21295.11688.42838.17801.64181.15166.52956-.08741.85505-.55928,1.04316-.28832.11492-.58494.21087-.88198.30178-3.61024,1.10489-7.22107,2.20785-10.83238,3.30922-.29715.09062-.59782.17045-.89883.24755-.55674.14259-.95681-.03424-1.16615-.58659-.03147-.08303-.06339-.16591-.09701-.24809q-.61383-1.50021-2.14899-1.17055c-.97256.20882-1.15208.11865-1.51451-.78642-.09892-.24701-.17622-.50292-.25811-.75646-.18173-.5627-.54034-.72477-1.1282-.62329-2.00789.3466-2.01203.33123-2.60147-1.59392-.53316-1.74134-1.07909-3.47901-1.58835-5.22732-.3563-1.2232-.27651-1.3412.89347-1.74955.20962-.07316.42061-.14323.63366-.20553.59547-.17415.74345-.57226.57521-1.13213-.294-.97834-.59111-1.95572-.88154-2.93511-.10092-.34032-.20109-.68212-.2746-1.02898-.10831-.51117.09684-.82778.59443-1.0288.56182-.22699,1.31898-.161,1.63501-.77104.28584-.5518-.15111-1.10939-.24736-1.66781-.14175-.82242-.0627-.96448.75373-1.28026.12406-.04801.25413-.08025.38006-.12369q1.28333-.44269.93826-1.8092c-.34417-1.36306-.30723-1.43428,1.0771-1.87139.93181-.29422,1.87167-.56313,2.80187-.86221,1.16664-.37507,1.20988-.46227.93059-1.59609-.01062-.04309-.02587-.08503-.03676-.12806-.36272-1.43367-.35396-1.45049.99404-1.91619q1.28137-.44266.936-1.81072c-.3366-1.33333-.29622-1.43781.95266-1.82845,2.03478-.6365,4.0729-1.26317,6.11803-1.8654,1.12386-.33095,1.25517-.23824,1.63698.87448.6062,1.7667.55341,1.87713-1.23303,2.4292-1.78238.55082-3.57195,1.07874-5.34993,1.64328-1.14796.36451-1.18159.45996-.87607,1.6231.0564.21474.11594.42896.18385.64029.18327.57032-.03.92315-.56552,1.16086-.55721.24734-1.31759.18887-1.63965.77866-.32631.59749.15508,1.19316.28036,1.78687.11154.52859-.05542.86013-.53111,1.06533-.12219.0527-.24568.10753-.37398.14016-1.80395.45899-1.54381.88358-1.15056,2.14149.30749.98358.19576,1.13291-.73573,1.49967-.24757.09748-.50335.17589-.75895.2508-.62705.18378-.80934.55077-.65966,1.20826.40582,1.7826.38174,1.78808-1.22581,2.43471-.82113.33031-.88169.44307-.69288,1.28989.37459,1.68002.38204,1.69851-1.32315,2.38473-.60343.24284-.84683.57028-.64577,1.21695.64617,2.07827,1.28284,4.1596,1.90552,6.24502.19599.65638.58573.83945,1.20862.6153.12515-.04504.25472-.0784.38335-.11304q1.45152-.39101,1.95899,1.08258c.41969,1.21867.44194,1.23979,1.72097.85684,1.9148-.57329,3.82405-1.16511,5.73598-1.74801Z"/>
        <path d="m95.96349,72.68428c-.42849-1.40272-.86914-2.80188-1.28203-4.20918-.40579-1.38305-.35279-1.46729.97394-1.92554.168-.05802.33639-.11576.50707-.16506.59267-.17116.75379-.56351.58452-1.12768-.281-.93649-.56411-1.87236-.84334-2.80937-.10151-.34062-.19844-.68271-.29047-1.026-.16896-.6304.08073-.97463.69157-1.21086,1.7719-.6853,1.76322-.70619,1.21384-2.51651-.25812-.85057-.5421-1.69466-.76275-2.5549-.2354-.91777-.15161-1.16876.71897-1.39141,2.03764-.52113,1.59407-.95779,1.15148-2.46458-.25051-.85283-.53945-1.69523-.76385-2.55465-.26041-.99731-.1665-1.14283.76934-1.48949.16652-.06168.34042-.10329.50775-.16298,1.00313-.35783,1.11976-.47076.81423-1.43214-.62537-1.96776-.08345-1.85451,1.46196-2.31537,1.01319-.30215,1.17959-.21851,1.49278.72304.42069,1.26479.80953,2.54145,1.16722,3.82549.2289.82167.11368.9766-.66873,1.32376-.51607.22898-1.22112.17494-1.50773.74236-.28267.55963.11812,1.1179.26595,1.66131.17587.64654-.04268,1.02758-.64901,1.23418-.0841.02865-.16777.05876-.25076.09047q-1.57673.60255-1.06879,2.27991c.27066.89324.56169,1.78088.80871,2.68057.25751.93789.17174,1.09197-.64924,1.44509q-1.73713.74712-1.19095,2.54125c.25872.85042.53893,1.69516.76733,2.55369.23575.88615.13357,1.04224-.73765,1.39801q-1.67833.68537-1.13824,2.45994c.51876,1.70046,1.02417,3.40522,1.56701,5.09798.29874.93149.42436,1.00258,1.35053.73086,2.00432-.58804,4.00262-1.19799,5.99285-1.83205.88438-.28174.93331-.43582.71673-1.38253q-.40321-1.7625,1.30632-2.2905c.8919-.27512,1.79068-.52942,2.67525-.82625.93142-.31256,1.06587-.46091.77259-1.3401-.65848-1.97383-.19572-1.91502,1.63636-2.43479.81445-.23105.9683-.10648,1.28785.70419.03254.08256.05501.16904.08368.25316.58754,1.72312.57766,1.74422-1.12001,2.38659-.96696.36588-1.01784.46202-.76377,1.47072.0434.17226.10625.33965.14877.51209.24418.9903.18331,1.1593-.77115,1.48732-1.13431.38987-2.29734.69587-3.43349,1.08084-.89476.30318-1.00967.46528-.70101,1.37749.52364,1.54749.47768,1.7558-1.32191,2.29691-2.72404.81906-5.43906,1.66802-8.16376,2.48485-1.41019.42276-1.5909.32511-2.02742-1.04573-.45847-1.43983-.88674-2.88925-1.32853-4.33439Z"/>
        <path d="m122.47103,89.10753c-.19452-.63677-.39596-1.27155-.58154-1.91092-.17437-.60078-.015-1.01216.62467-1.24654.56282-.20619,1.33598-.14206,1.59787-.80416.21944-.55482-.17412-1.11707-.29693-1.6745-.1414-.64204.10212-.97348.70869-1.20431,1.58381-.60274,1.57537-.62496,1.26047-2.39253-.14602-.81966-.06291-.96353.75413-1.27815.16542-.06372.3392-.10544.50671-.16415,1.11871-.39212,1.14587-.44588.84644-1.64375q-.37683-1.50746,1.03962-1.99876c1.20535-.41814,1.21675-.43982.89114-1.72569-.05447-.21509-.11612-.42843-.16683-.64438-.13539-.57645.08734-.93702.65405-1.10845,1.06232-.32136,2.12238-.65032,3.18127-.98285q1.4211-.44628,1.06832-1.84642c-.3446-1.36542-.3094-1.43789,1.07424-1.87141,1.14382-.35836,2.28666-.72343,3.4433-1.03607.8281-.22386.98343-.11394,1.29619.68545.09683.2475.16807.50557.24145.76155.3485,1.21563.287,1.33998-.87061,1.76388-.20832.07628-.42051.14239-.6322.20904-.55996.17628-.76228.51568-.62038,1.11515.13862.58568.62577,1.19531.24779,1.77688-.41384.63679-1.24002.62164-1.89994.85102-.75435.26223-1.53286.45493-2.28716.71728-.91475.31816-1.04168.46971-.73659,1.35775.56523,1.64529.4428,1.80545-1.40792,2.35497-.89371.26536-1.79095.5231-2.67086.82942-.83709.2914-.8944.43733-.71067,1.27533q.37298,1.70104-1.30366,2.40152c-.77307.32299-.86022.46068-.62027,1.32329.30924,1.11179.67912,2.20664.99518,3.31668.30467,1.07014.22244,1.21513-.76938,1.59851-.16539.06392-.33957.1049-.50585.16674-.99596.37043-1.04375.45872-.8007,1.44928.41754,1.70166.28651,1.90671-1.46837,2.29767-.94376.21027-1.16615.10756-1.49917-.80776-.22736-.62494-.39536-1.27146-.5899-1.90833.00246-.00075.00494-.00151.00739-.00227Z"/>
        <path d="m64.09844,58.15011c-1.44346.44094-2.88222.89807-4.33178,1.31798-1.28982.37363-1.4907.24675-1.90789-1.06422-.06727-.21137-.13852-.42331-.18163-.64022-.1653-.83168-.09148-1.03601.72051-1.29028,3.13475-.98161,6.27634-1.94205,9.42428-2.88048.92633-.27616,1.07257-.16532,1.4066.68779.75343,1.9242.67233,2.09415-1.30865,2.70393-1.27279.3918-2.54713.77866-3.82077,1.16772l-.00068-.00223Z"/>
        <path d="m63.35965,85.63501c.67856-.20728,1.35656-.41638,2.03583-.62129.57058-.17212.93542.03262,1.12601.59785.79215,2.34922.74048,2.25605-1.3466,2.88848-.93374.28293-1.86068.59339-2.80535.83376-.87421.22243-1.07759.08895-1.41323-.74822-.09875-.24628-.17437-.50321-.24283-.76001-.30113-1.12976-.22023-1.29379.8614-1.65736.58833-.19776,1.18669-.3657,1.78052-.5471.00142.00464.00284.00926.00425.0139Z"/>
        <path d="m106.00754,29.64335c1.50587-.45859,1.59037-.41336,2.05226,1.09867.44056,1.44223.34421,1.61767-1.12743,2.05307-1.38538.4099-1.61073.27746-2.04739-1.20331-.40439-1.37136-.3261-1.50728,1.12256-1.94844Z"/>
      </g>
    </g>
  </g>
</svg>